<?xml version="1.0" standalone="no"?>
<!DOCTYPE svg PUBLIC "-//W3C//DTD SVG 1.1//EN" "http://www.w3.org/Graphics/SVG/1.1/DTD/svg11.dtd">
<svg width="128mm" height="70mm" viewBox="-64 -35 128 70" xmlns="http://www.w3.org/2000/svg" version="1.1">
<title>OpenSCAD Model</title>
<path d="
M -63.9373,-34.9653 L -63.7968,-33.898 L -63.5061,-31.6915 L -63.422,-31.0388 L -63.3398,-30.4191 L -62.8645,-26.8159
 L -62.7822,-26.1907 L -62.3179,-22.6643 L -62.3033,-22.5473 L -61.7494,-21.2103 L -61.5227,-20.6637 L -60.605,-18.4444
 L -60.0054,-16.9983 L -59.7129,-16.2945 L -58.2504,-12.7626 L -57.9488,-12.0351 L -56.5411,-8.63663 L -56.2322,-7.89259
 L -55.8593,-6.99134 L -54.9782,-5.84318 L -53.1575,-3.46849 L -53.0094,-3.27471 L -52.3476,-2.41185 L -49.7737,0.940874
 L -49.0698,1.85858 L -46.6604,4.99924 L -45.9219,5.96082 L -45.6093,6.36666 L -41.8086,9.2843 L -40.1707,10.542
 L -36.2092,13.5785 L -35.7741,13.9149 L -34.3939,14.9752 L -33.3994,15.7375 L -32.2513,16.6187 L -25.3721,19.4668
 L -20.7982,21.3626 L -18.7179,22.2236 L -18.0323,22.5069 L -16.6953,23.0607 L -15.7761,24.084 L -14.3337,25.6927
 L -13.8749,26.2009 L -12.8091,27.3892 L -11.4398,28.9138 L -9.91155,30.614 L -8.74888,31.9083 L -7.22607,33.6047
 L -6.26633,34.6723 L -6.00125,34.9667 L -2.29412,34.9667 L -2.29412,34.6975 L -2.29418,34.642 L -2.29405,34.5725
 L -2.29426,34.465 L -2.29426,34.2768 L -2.29426,33.7403 L -2.29426,31.2873 L -2.29426,29.4477 L -2.29435,27.5787
 L -4.64109,27.5787 L -4.64109,20.1507 L 4.63899,20.1507 L 4.63899,27.5787 L 2.29223,27.5787 L 2.29084,31.1792
 L 2.29084,34.9667 L 5.99875,34.9667 L 6.1066,34.8478 L 6.57642,34.325 L 7.89997,32.8516 L 8.81915,31.8282
 L 10.8209,29.5998 L 11.3675,28.991 L 12.9159,27.2653 L 13.4954,26.6218 L 13.4954,26.62 L 15.1389,24.7919
 L 15.7458,24.1155 L 16.6927,23.0607 L 18.36,22.3696 L 19.6268,21.8468 L 23.5554,20.218 L 24.7418,19.728
 L 28.1476,18.3168 L 28.9739,17.9749 L 30.0671,17.5215 L 30.9117,17.1724 L 32.2487,16.6187 L 34.6088,14.807
 L 35.2852,14.2897 L 38.3345,11.9479 L 38.9871,11.4488 L 42.0857,9.07046 L 42.1735,9.00282 L 42.795,8.52569
 L 44.4586,7.24785 L 45.6068,6.36666 L 46.678,4.96999 L 47.0711,4.46178 L 47.4294,3.99379 L 48.3104,2.84563
 L 50.1677,0.423408 L 50.6083,-0.150616 L 52.8294,-3.04632 L 53.025,-3.30042 L 54.4455,-5.15045 L 55.5387,-6.57454
 L 55.8568,-6.99134 L 55.8842,-7.05715 L 57.003,-9.75542 L 57.5568,-11.0925 L 59.5842,-15.99 L 59.6281,-16.0942
 L 61.0302,-19.478 L 61.2405,-19.988 L 62.3008,-22.5473 L 62.4196,-23.4504 L 62.4909,-23.9897 L 62.5914,-24.7539
 L 62.732,-25.8212 L 63.1086,-28.6804 L 63.6571,-32.8429 L 63.9368,-34.9653 L 55.9368,-34.9653 L 55.7367,-33.4478
 L 55.6616,-32.8777 L 55.3971,-30.8724 L 55.2401,-29.6828 L 55.1496,-28.9916 L 54.7281,-25.7864 L 54.6376,-25.1055
 L 54.5727,-24.6173 L 53.745,-22.619 L 52.6869,-20.0624 L 52.4206,-19.4173 L 52.3404,-19.2278 L 51.1816,-16.4272
 L 50.9119,-15.7769 L 49.6848,-12.8158 L 49.4152,-12.1655 L 48.9287,-10.9913 L 47.6118,-9.27519 L 46.3642,-7.64701
 L 45.8914,-7.0326 L 45.3777,-6.36187 L 43.8468,-4.36845 L 43.3621,-3.73698 L 41.3704,-1.1394 L 40.8789,-0.497679
 L 39.9487,0.710659 L 34.7553,4.69749 L 33.9378,5.32384 L 33.5862,5.59521 L 32.8779,6.13794 L 31.1621,7.45489
 L 29.4844,8.74174 L 28.6362,9.39199 L 28.2487,9.69066 L 24.8285,11.1072 L 24.5913,11.2045 L 20.0123,13.1023
 L 18.0139,13.9301 L 17.6777,14.07 L 16.1656,14.6964 L 14.6227,15.3347 L 11.2503,15.7784 L 8.22095,16.1778
 L 5.78379,16.4969 L 3.63912,16.7791 L 0.700198,17.1665 L -0.00125122,17.2587 L -8.84021,16.0964 L -10.9849,15.8142
 L -13.8555,15.4354 L -14.6253,15.3347 L -14.9342,15.2067 L -22.8617,11.923 L -24.8601,11.0953 L -25.8892,10.6686
 L -28.2513,9.69066 L -29.6149,8.64446 L -33.3969,5.74137 L -35.3238,4.26338 L -37.0399,2.94642 L -37.0451,2.9413
 L -39.9533,0.710659 L -40.612,-0.147807 L -41.4944,-1.29812 L -42.1873,-2.20096 L -43.504,-3.91711 L -45.0997,-5.99756
 L -48.3749,-10.2643 L -48.9313,-10.9913 L -49.0422,-11.2576 L -50.3068,-14.3109 L -50.3376,-14.3825 L -51.1653,-16.3809
 L -51.51,-17.212 L -52.8242,-20.3882 L -53.186,-21.2603 L -54.5753,-24.6173 L -54.6708,-25.3444 L -54.9149,-27.1927
 L -55.1149,-28.7103 L -55.3197,-30.2685 L -55.3231,-30.2839 L -55.3914,-30.8027 L -55.4784,-31.4752 L -55.8488,-34.2827
 L -55.9171,-34.8015 L -55.9393,-34.9653 z
M -60.8353,-29.558 L -60.8353,-29.5593 L -60.8334,-29.6745 L -60.8331,-29.6902 L -60.8313,-29.7578 L -60.8313,-29.7607
 L -60.8294,-29.8265 L -60.8239,-29.9417 L -60.8233,-29.9573 L -60.8159,-30.0725 L -60.8151,-30.088 L -60.8114,-30.1538
 L -60.8113,-30.1553 L -60.8003,-30.2687 L -60.7987,-30.2842 L -60.7914,-30.35 L -60.7913,-30.3513 L -60.7785,-30.4629
 L -60.7767,-30.4782 L -60.7731,-30.5202 L -60.7694,-30.544 L -60.7691,-30.5467 L -60.7599,-30.6107 L -60.7435,-30.7222
 L -60.7413,-30.7373 L -60.7303,-30.7958 L -60.723,-30.8452 L -60.7204,-30.86 L -60.7076,-30.924 L -60.7073,-30.9253
 L -60.6853,-31.0314 L -60.6824,-31.0458 L -60.6696,-31.108 L -60.6693,-31.1093 L -60.6437,-31.2135 L -60.6402,-31.2276
 L -60.6274,-31.288 L -60.6273,-31.2893 L -60.5998,-31.3899 L -60.5961,-31.4036 L -60.5796,-31.464 L -60.5793,-31.4653
 L -60.5482,-31.5622 L -60.5441,-31.5755 L -60.5276,-31.6321 L -60.5273,-31.6333 L -60.4944,-31.7284 L -60.4899,-31.7415
 L -60.4716,-31.7981 L -60.4713,-31.7993 L -60.4347,-31.8889 L -60.4297,-31.9013 L -60.4096,-31.9561 L -60.4093,-31.9573
 L -60.3727,-32.0451 L -60.3675,-32.057 L -60.3456,-32.1081 L -60.3453,-32.1093 L -60.305,-32.1916 L -60.2995,-32.203
 L -60.2758,-32.2523 L -60.2753,-32.2533 L -60.2332,-32.3338 L -60.2275,-32.3446 L -60.2038,-32.3885 L -60.2033,-32.3893
 L -60.2027,-32.3904 L -60.1771,-32.4343 L -60.1333,-32.5092 L -60.1273,-32.5193 L -60.1267,-32.5202 L -60.1011,-32.5623
 L -60.0554,-32.6317 L -60.0493,-32.6413 L -60.0486,-32.6422 L -60.0211,-32.6806 L -59.9718,-32.7464 L -59.9653,-32.7553
 L -59.9451,-32.7791 L -59.9177,-32.8157 L -59.9112,-32.8237 L -59.8819,-32.8585 L -59.8813,-32.8593 L -59.8301,-32.9124
 L -59.8232,-32.9197 L -59.7939,-32.9527 L -59.7933,-32.9533 L -59.7421,-33.0045 L -59.735,-33.0112 L -59.7039,-33.0387
 L -59.7033,-33.0393 L -59.7026,-33.04 L -59.6715,-33.0675 L -59.6185,-33.1113 L -59.6113,-33.1173 L -59.5582,-33.1539
 L -59.5509,-33.1591 L -59.5179,-33.1828 L -59.5173,-33.1833 L -59.5166,-33.1837 L -59.4855,-33.202 L -59.4288,-33.2349
 L -59.4213,-33.2393 L -59.3664,-33.2668 L -59.3588,-33.2704 L -59.3259,-33.285 L -59.3253,-33.2853 L -59.2686,-33.3073
 L -59.2608,-33.3102 L -59.2279,-33.323 L -59.2273,-33.3233 L -59.1706,-33.338 L -59.1628,-33.3399 L -59.1299,-33.349
 L -59.1293,-33.3493 L -59.1284,-33.3493 L -59.0937,-33.3548 L -59.037,-33.3621 L -59.0293,-33.3633 L -58.9726,-33.367
 L -58.9647,-33.3675 L -58.9299,-33.3693 L -58.9286,-33.3693 L -58.8938,-33.3675 L -58.8372,-33.3639 L -58.8293,-33.3633
 L -58.7726,-33.356 L -58.7649,-33.3548 L -58.7301,-33.3493 L -58.7293,-33.3493 L -58.6726,-33.3329 L -58.6648,-33.3307
 L -58.6319,-33.3233 L -58.6313,-33.3233 L -58.5746,-33.3014 L -58.5668,-33.2985 L -58.5339,-33.2857 L -58.5333,-33.2853
 L -58.4766,-33.2598 L -58.4688,-33.2561 L -58.4378,-33.2397 L -58.4373,-33.2393 L -58.3806,-33.2064 L -58.373,-33.202
 L -58.3639,-33.1965 L -58.3419,-33.1837 L -58.3413,-33.1833 L -58.3406,-33.1828 L -58.3077,-33.1591 L -58.2546,-33.1225
 L -58.2473,-33.1173 L -58.1942,-33.0735 L -58.187,-33.0675 L -58.1559,-33.04 L -58.1553,-33.0393 L -58.1022,-32.99
 L -58.095,-32.9833 L -58.0658,-32.954 L -58.0653,-32.9533 L -58.0646,-32.9527 L -58.0353,-32.9197 L -58.0284,-32.9124
 L -57.9773,-32.8593 L -57.9706,-32.8511 L -57.9212,-32.7908 L -57.8919,-32.756 L -57.8913,-32.7553 L -57.8907,-32.7545
 L -57.8633,-32.7161 L -57.8568,-32.7072 L -57.8093,-32.6413 L -57.8031,-32.6317 L -57.7574,-32.5623 L -57.7318,-32.5202
 L -57.7313,-32.5193 L -57.7252,-32.5092 L -57.6814,-32.4343 L -57.6558,-32.3904 L -57.6553,-32.3893 L -57.6496,-32.3787
 L -57.6075,-32.3001 L -57.5819,-32.2544 L -57.5813,-32.2533 L -57.5807,-32.2523 L -57.5588,-32.203 L -57.5535,-32.1916
 L -57.5133,-32.1093 L -57.509,-32.099 L -57.4706,-32.0113 L -57.4699,-32.0096 L -57.4498,-31.9584 L -57.4493,-31.9573
 L -57.4444,-31.9448 L -57.4097,-31.8534 L -57.3878,-31.8004 L -57.3873,-31.7993 L -57.3869,-31.7981 L -57.3686,-31.7415
 L -57.3642,-31.7284 L -57.3313,-31.6333 L -57.3271,-31.6199 L -57.2979,-31.523 L -57.2796,-31.4664 L -57.2793,-31.4653
 L -57.2789,-31.464 L -57.2625,-31.4036 L -57.2587,-31.3899 L -57.2313,-31.2893 L -57.2278,-31.2751 L -57.2041,-31.1709
 L -57.1894,-31.1105 L -57.1893,-31.1093 L -57.1889,-31.108 L -57.1761,-31.0458 L -57.1732,-31.0314 L -57.1513,-30.9253
 L -57.1487,-30.9106 L -57.1286,-30.8009 L -57.1176,-30.7387 L -57.1173,-30.7373 L -57.1171,-30.736 L -57.1079,-30.672
 L -57.1057,-30.6569 L -57.0893,-30.5453 L -57.0874,-30.53 L -57.0782,-30.4588 L -57.0727,-30.4185 L -57.0673,-30.3527
 L -57.0673,-30.3513 L -57.0669,-30.35 L -57.0633,-30.3225 L -57.0596,-30.2842 L -57.0582,-30.2687 L -57.0473,-30.1553
 L -57.0399,-30.042 L -57.0389,-30.0264 L -57.0353,-29.9587 L -57.0353,-29.9573 L -57.0346,-29.9417 L -57.0291,-29.8265
 L -57.0273,-29.7607 L -57.0273,-29.7593 L -57.0269,-29.7437 L -57.0251,-29.6285 L -57.0233,-29.6157 L -57.0233,-29.558
 L -57.0251,-29.4903 L -57.0254,-29.4747 L -57.0273,-29.3613 L -57.0279,-29.3455 L -57.0316,-29.2304 L -57.0353,-29.1627
 L -57.0353,-29.1613 L -57.0361,-29.1457 L -57.0434,-29.0324 L -57.0471,-28.9647 L -57.0473,-28.9633 L -57.0486,-28.9479
 L -57.0596,-28.8345 L -57.0669,-28.7687 L -57.0673,-28.7673 L -57.069,-28.752 L -57.0745,-28.6862 L -57.0818,-28.6387
 L -57.0891,-28.5747 L -57.0893,-28.5733 L -57.0915,-28.5584 L -57.0915,-28.5582 L -57.1079,-28.4485 L -57.1171,-28.3827
 L -57.1173,-28.3813 L -57.1193,-28.37 L -57.1198,-28.3666 L -57.1381,-28.2587 L -57.1509,-28.1947 L -57.1513,-28.1933
 L -57.1542,-28.1789 L -57.1761,-28.0729 L -57.1889,-28.0107 L -57.1893,-28.0093 L -57.1927,-27.9951 L -57.2165,-27.8909
 L -57.2311,-27.8305 L -57.2313,-27.8293 L -57.235,-27.8156 L -57.2625,-27.715 L -57.2789,-27.6565 L -57.2793,-27.6553
 L -57.2834,-27.6419 L -57.3145,-27.5432 L -57.3236,-27.5103 L -57.3309,-27.4847 L -57.3313,-27.4833 L -57.3318,-27.4823
 L -57.3519,-27.4275 L -57.3562,-27.4146 L -57.3873,-27.3213 L -57.3922,-27.3088 L -57.4288,-27.2156 L -57.4489,-27.1625
 L -57.4493,-27.1613 L -57.4498,-27.1603 L -57.4699,-27.1091 L -57.4749,-27.0971 L -57.5133,-27.0093 L -57.5186,-26.998
 L -57.5588,-26.9157 L -57.5807,-26.8664 L -57.5813,-26.8653 L -57.5871,-26.8545 L -57.631,-26.7759 L -57.6547,-26.7284
 L -57.6553,-26.7273 L -57.6558,-26.7263 L -57.6814,-26.6824 L -57.6874,-26.6723 L -57.7313,-26.5973 L -57.7374,-26.5879
 L -57.7813,-26.5184 L -57.8087,-26.4782 L -57.8093,-26.4773 L -57.8158,-26.4684 L -57.8633,-26.4026 L -57.8907,-26.366
 L -57.8913,-26.3653 L -57.8919,-26.3645 L -57.9212,-26.3279 L -57.9279,-26.3197 L -57.9773,-26.2593 L -58.0284,-26.2045
 L -58.0353,-26.1969 L -58.0499,-26.1805 L -58.0646,-26.1659 L -58.0653,-26.1653 L -58.0723,-26.1585 L -58.1235,-26.1091
 L -58.1546,-26.0799 L -58.1553,-26.0793 L -58.1625,-26.0733 L -58.2137,-26.0295 L -58.2466,-26.0039 L -58.2473,-26.0033
 L -58.2546,-25.998 L -58.3077,-25.9596 L -58.3296,-25.945 L -58.3406,-25.9359 L -58.3413,-25.9353 L -58.3419,-25.935
 L -58.373,-25.9167 L -58.3806,-25.9122 L -58.4373,-25.8793 L -58.4448,-25.8757 L -58.4997,-25.8483 L -58.5326,-25.8319
 L -58.5333,-25.8313 L -58.541,-25.8286 L -58.5977,-25.8085 L -58.6306,-25.7975 L -58.6313,-25.7973 L -58.639,-25.7951
 L -58.6957,-25.7787 L -58.7286,-25.7713 L -58.7293,-25.7713 L -58.7372,-25.77 L -58.7957,-25.7608 L -58.8286,-25.7553
 L -58.8293,-25.7553 L -58.8372,-25.7548 L -58.8938,-25.7512 L -58.9286,-25.7493 L -58.9293,-25.7493 L -58.9372,-25.7499
 L -58.9957,-25.7535 L -59.0286,-25.7553 L -59.0293,-25.7553 L -59.037,-25.7565 L -59.0937,-25.7657 L -59.1284,-25.7712
 L -59.1293,-25.7713 L -59.137,-25.7732 L -59.1937,-25.7879 L -59.2266,-25.797 L -59.2273,-25.7973 L -59.235,-25.8001
 L -59.2917,-25.8202 L -59.3246,-25.8312 L -59.3253,-25.8313 L -59.3259,-25.8319 L -59.3588,-25.8483 L -59.3664,-25.8519
 L -59.4213,-25.8793 L -59.4288,-25.8838 L -59.4855,-25.9167 L -59.5166,-25.935 L -59.5173,-25.9353 L -59.5246,-25.9407
 L -59.5795,-25.9791 L -59.6106,-26.0028 L -59.6113,-26.0033 L -59.6185,-26.0094 L -59.6715,-26.0532 L -59.7026,-26.0788
 L -59.7033,-26.0793 L -59.7617,-26.1336 L -59.7635,-26.1354 L -59.7927,-26.1647 L -59.7933,-26.1653 L -59.7939,-26.1659
 L -59.8232,-26.1969 L -59.8301,-26.2045 L -59.8813,-26.2593 L -59.9306,-26.3197 L -59.9373,-26.3279 L -59.9647,-26.3645
 L -59.9653,-26.3653 L -59.9659,-26.366 L -59.9952,-26.4026 L -60.0427,-26.4684 L -60.0493,-26.4773 L -60.095,-26.5468
 L -60.1011,-26.5563 L -60.1267,-26.5965 L -60.1273,-26.5973 L -60.1437,-26.6266 L -60.1711,-26.6723 L -60.1758,-26.6802
 L -60.1771,-26.6826 L -60.2027,-26.7265 L -60.2033,-26.7273 L -60.2453,-26.806 L -60.251,-26.8168 L -60.2753,-26.8653
 L -60.2758,-26.8664 L -60.2995,-26.9157 L -60.3398,-26.998 L -60.3453,-27.0093 L -60.3836,-27.0971 L -60.3886,-27.1091
 L -60.4087,-27.1603 L -60.4093,-27.1613 L -60.444,-27.2527 L -60.4488,-27.2651 L -60.4707,-27.32 L -60.4713,-27.3213
 L -60.4716,-27.3224 L -60.4789,-27.3443 L -60.4899,-27.3754 L -60.5228,-27.4705 L -60.5273,-27.4833 L -60.5565,-27.5821
 L -60.5606,-27.5955 L -60.5789,-27.654 L -60.5793,-27.6553 L -60.6067,-27.7559 L -60.6105,-27.7696 L -60.6196,-27.8007
 L -60.6269,-27.8281 L -60.6273,-27.8293 L -60.6274,-27.8305 L -60.6402,-27.8909 L -60.6658,-27.9951 L -60.6693,-28.0093
 L -60.693,-28.1154 L -60.6961,-28.13 L -60.7071,-28.1921 L -60.7073,-28.1933 L -60.7274,-28.303 L -60.7299,-28.318
 L -60.7409,-28.3801 L -60.7413,-28.3813 L -60.7577,-28.4929 L -60.7599,-28.508 L -60.7691,-28.572 L -60.7693,-28.5733
 L -60.7694,-28.5747 L -60.7767,-28.6387 L -60.7785,-28.654 L -60.7913,-28.7673 L -60.8022,-28.8807 L -60.8038,-28.8962
 L -60.8111,-28.962 L -60.8113,-28.9633 L -60.8114,-28.9647 L -60.8151,-29.0324 L -60.8224,-29.1457 L -60.8233,-29.1613
 L -60.8287,-29.2747 L -60.8294,-29.2903 L -60.8313,-29.3598 L -60.8313,-29.3613 L -60.8331,-29.4747 L -60.8334,-29.4903
 z
M -11.5093,25.1757 L -11.5093,25.1327 L -11.5056,25.065 L -11.5051,25.0557 L -11.5033,25.0155 L -11.5033,25.0147
 L -11.5031,25.014 L -11.4994,24.9756 L -11.4903,24.9098 L -11.4893,24.9007 L -11.4783,24.8367 L -11.4767,24.8281
 L -11.4694,24.7915 L -11.4693,24.7907 L -11.4528,24.7303 L -11.4507,24.7221 L -11.4416,24.6855 L -11.4413,24.6847
 L -11.423,24.6262 L -11.4204,24.6183 L -11.4094,24.5853 L -11.4093,24.5847 L -11.4089,24.584 L -11.3943,24.5511
 L -11.3705,24.4962 L -11.3673,24.4887 L -11.3398,24.4356 L -11.3361,24.4284 L -11.3196,24.3992 L -11.3193,24.3987
 L -11.3189,24.398 L -11.3006,24.3687 L -11.2714,24.323 L -11.2696,24.3194 L -11.2653,24.3127 L -11.2287,24.267
 L -11.2239,24.2606 L -11.2147,24.246 L -11.2038,24.2332 L -11.2033,24.2327 L -11.1649,24.1906 L -11.1595,24.1848
 L -11.1358,24.1592 L -11.1353,24.1587 L -11.0932,24.1203 L -11.0875,24.1149 L -11.087,24.1144 L -11.0633,24.0907
 L -11.0627,24.0903 L -11.0353,24.072 L -11.029,24.0672 L -10.9833,24.0307 L -10.9339,23.9996 L -10.9272,23.9953
 L -10.9265,23.9949 L -10.8973,23.9767 L -10.8461,23.9492 L -10.839,23.9455 L -10.8383,23.9451 L -10.8073,23.9287
 L -10.7506,23.9049 L -10.743,23.9016 L -10.7423,23.9013 L -10.7113,23.8867 L -10.7104,23.8865 L -10.6775,23.8755
 L -10.6696,23.8728 L -10.6093,23.8527 L -10.5489,23.838 L -10.5407,23.8358 L -10.5398,23.8358 L -10.5033,23.8267
 L -10.4411,23.8139 L -10.4325,23.8121 L -10.4316,23.812 L -10.3933,23.8047 L -10.3293,23.7973 L -10.3203,23.7965
 L -10.3196,23.7963 L -10.2813,23.7927 L -10.2118,23.789 L -10.2025,23.7885 L -10.2015,23.7885 L -10.1613,23.7867
 L -10.0918,23.7867 L -10.0822,23.7868 L -10.0815,23.7868 L -10.0413,23.7887 L -9.96813,23.7923 L -9.95816,23.7928
 L -9.9573,23.793 L -9.91525,23.7967 L -9.84213,23.804 L -9.83216,23.8052 L -9.8313,23.8052 L -9.78925,23.8107
 L -9.71247,23.8253 L -9.70216,23.8272 L -9.7013,23.8273 L -9.65925,23.8347 L -9.58247,23.8529 L -9.57199,23.8552
 L -9.57095,23.8555 L -9.52525,23.8647 L -9.44847,23.8848 L -9.43799,23.8875 L -9.43696,23.8879 L -9.39125,23.9007
 L -9.39039,23.901 L -9.34469,23.9156 L -9.33403,23.9191 L -9.25725,23.9447 L -9.25622,23.945 L -9.21052,23.9615
 L -9.19986,23.9654 L -9.12125,23.9947 L -9.12022,23.9952 L -9.07452,24.0153 L -9.06386,24.0198 L -8.98525,24.0527
 L -8.90482,24.0874 L -8.89399,24.0924 L -8.89296,24.0927 L -8.84725,24.1147 L -8.84278,24.1169 L -8.76418,24.1571
 L -8.75782,24.1604 L -8.75678,24.1609 L -8.70925,24.1847 L -8.63064,24.2285 L -8.61999,24.2344 L -8.61896,24.2351
 L -8.57325,24.2607 L -8.57239,24.2612 L -8.52669,24.2886 L -8.51603,24.2951 L -8.43925,24.3427 L -8.36064,24.392
 L -8.34999,24.3987 L -8.34913,24.3996 L -8.30525,24.4307 L -8.30422,24.4312 L -8.25852,24.4623 L -8.24803,24.4696
 L -8.17125,24.5227 L -8.0963,24.5775 L -8.08599,24.5851 L -8.08513,24.5859 L -8.04125,24.6207 L -7.9663,24.6792
 L -7.95599,24.6872 L -7.95513,24.6879 L -7.91125,24.7227 L -7.83996,24.7848 L -7.83016,24.7932 L -7.8293,24.7941
 L -7.78725,24.8307 L -7.78622,24.8313 L -7.74418,24.8679 L -7.73455,24.8767 L -7.66325,24.9407 L -7.59379,25.0083
 L -7.5845,25.0174 L -7.58347,25.0183 L -7.54325,25.0567 L -7.5424,25.0577 L -7.50401,25.0979 L -7.49507,25.1072
 L -7.45302,25.1511 L -7.42925,25.1767 L -7.42049,25.1865 L -7.39124,25.2175 L -7.35468,25.2578 L -7.31811,25.2998
 L -7.31725,25.3007 L -7.2551,25.372 L -7.24667,25.3818 L -7.21011,25.4238 L -7.20925,25.4247 L -7.20117,25.4348
 L -7.14267,25.5079 L -7.10794,25.5536 L -7.10725,25.5547 L -7.09952,25.5648 L -7.04285,25.6379 L -7.00994,25.6836
 L -7.00925,25.6847 L -7.00186,25.6951 L -6.94885,25.7719 L -6.91777,25.8158 L -6.91725,25.8167 L -6.91656,25.8177
 L -6.90011,25.8415 L -6.88732,25.8634 L -6.88044,25.8739 L -6.82925,25.9507 L -6.82289,25.9615 L -6.77536,26.0401
 L -6.74794,26.0858 L -6.74725,26.0867 L -6.74124,26.0975 L -6.69736,26.1761 L -6.67177,26.2218 L -6.67125,26.2227
 L -6.67074,26.2237 L -6.64697,26.2694 L -6.64147,26.2802 L -6.60125,26.3607 L -6.59644,26.3715 L -6.55988,26.4501
 L -6.53977,26.4976 L -6.53925,26.4987 L -6.53891,26.4995 L -6.52063,26.5434 L -6.51599,26.5542 L -6.48125,26.6347
 L -6.4773,26.6453 L -6.46999,26.6636 L -6.44805,26.7239 L -6.4316,26.7696 L -6.43125,26.7707 L -6.42781,26.7813
 L -6.41136,26.8325 L -6.40405,26.8581 L -6.38942,26.9038 L -6.38925,26.9047 L -6.38633,26.9153 L -6.36439,26.9939
 L -6.3516,27.0378 L -6.35125,27.0387 L -6.35108,27.0395 L -6.34194,27.0834 L -6.33953,27.0939 L -6.32125,27.1707
 L -6.31954,27.181 L -6.30674,27.2559 L -6.30674,27.2578 L -6.2976,27.3016 L -6.29725,27.3027 L -6.29622,27.3126
 L -6.28891,27.3858 L -6.28342,27.4278 L -6.28308,27.4295 L -6.28125,27.4716 L -6.28074,27.4814 L -6.27525,27.5527
 L -6.27508,27.5623 L -6.27325,27.6336 L -6.27325,27.6755 L -6.27508,27.7157 L -6.2756,27.7252 L -6.27925,27.7947
 L -6.28029,27.8034 L -6.2876,27.8674 L -6.29125,27.9058 L -6.29125,27.9067 L -6.29142,27.9075 L -6.29874,27.9459
 L -6.30045,27.9545 L -6.31325,28.0167 L -6.31531,28.0251 L -6.32994,28.0872 L -6.34091,28.122 L -6.34125,28.1227
 L -6.34142,28.1233 L -6.35057,28.1581 L -6.35314,28.1662 L -6.37325,28.2247 L -6.37652,28.2322 L -6.40029,28.2871
 L -6.40942,28.3072 L -6.41491,28.32 L -6.41525,28.3207 L -6.4156,28.3213 L -6.43022,28.3524 L -6.434,28.3595
 L -6.43766,28.365 L -6.46325,28.4107 L -6.49433,28.46 L -6.49863,28.4667 L -6.51691,28.496 L -6.51725,28.4967
 L -6.52207,28.5028 L -6.55863,28.5486 L -6.57691,28.576 L -6.57725,28.5767 L -6.58275,28.5823 L -6.62297,28.6244
 L -6.64674,28.6481 L -6.64725,28.6487 L -6.67102,28.6724 L -6.67153,28.6729 L -6.67721,28.6783 L -6.71925,28.7167
 L -6.76496,28.7514 L -6.77132,28.7562 L -6.79874,28.7763 L -6.79925,28.7767 L -6.84861,28.8096 L -6.85532,28.814
 L -6.88457,28.8323 L -6.88525,28.8327 L -6.93644,28.8601 L -6.94349,28.8639 L -6.97457,28.8785 L -6.97525,28.8788
 L -6.97525,28.8807 L -7.03193,28.9044 L -7.03949,28.9075 L -7.07057,28.9221 L -7.07125,28.9227 L -7.12975,28.9428
 L -7.13766,28.9453 L -7.17057,28.9545 L -7.17125,28.9547 L -7.23341,28.9711 L -7.24183,28.9733 L -7.2784,28.9825
 L -7.27925,28.9827 L -7.34141,28.9955 L -7.35,28.9972 L -7.38657,29.0027 L -7.38725,29.0027 L -7.45306,29.01
 L -7.46217,29.011 L -7.50057,29.0165 L -7.50126,29.0167 L -7.57072,29.0185 L -7.57381,29.0187 L -7.58,29.0188
 L -7.6184,29.0225 L -7.61926,29.0227 L -7.69055,29.0208 L -7.70035,29.0207 L -7.74125,29.0207 L -7.7833,29.0188
 L -7.78433,29.0187 L -7.79413,29.0181 L -7.86725,29.0127 L -7.94038,29.0035 L -7.95035,29.0023 L -7.99239,28.9968
 L -7.99325,28.9967 L -8.03713,28.9893 L -8.03816,28.9892 L -8.0483,28.9875 L -8.09217,28.9801 L -8.12325,28.9747
 L -8.20003,28.9564 L -8.21052,28.954 L -8.25622,28.9448 L -8.25725,28.9447 L -8.33403,28.9245 L -8.34452,28.9216
 L -8.39022,28.907 L -8.39125,28.9067 L -8.43513,28.892 L -8.43599,28.8919 L -8.44665,28.8883 L -8.52525,28.8627
 L -8.60386,28.8352 L -8.61469,28.8315 L -8.6604,28.815 L -8.66125,28.8147 L -8.73986,28.7799 L -8.75052,28.7753
 L -8.79622,28.757 L -8.79725,28.7567 L -8.84478,28.7347 L -8.84582,28.7342 L -8.85665,28.7292 L -8.93525,28.6927
 L -8.99192,28.6652 L -9.00275,28.6599 L -9.02469,28.6471 L -9.0704,28.6252 L -9.07125,28.6247 L -9.14986,28.5808
 L -9.16069,28.5748 L -9.20822,28.5492 L -9.20925,28.5487 L -9.28603,28.5011 L -9.29669,28.4948 L -9.34239,28.4673
 L -9.34325,28.4667 L -9.42186,28.4155 L -9.43252,28.4086 L -9.47639,28.3793 L -9.47725,28.3787 L -9.52295,28.3476
 L -9.52399,28.3471 L -9.53447,28.3397 L -9.61125,28.2867 L -9.6862,28.23 L -9.69652,28.2223 L -9.74039,28.1893
 L -9.74125,28.1887 L -9.81621,28.1283 L -9.81655,28.1282 L -9.82635,28.1203 L -9.87022,28.0873 L -9.87125,28.0867
 L -9.94255,28.0245 L -9.95235,28.0161 L -9.99439,27.9795 L -9.99525,27.9787 L -10.0665,27.9128 L -10.0762,27.9039
 L -10.1182,27.8673 L -10.1193,27.8667 L -10.1869,27.8008 L -10.1962,27.7917 L -10.2364,27.7515 L -10.2373,27.7507
 L -10.3049,27.6812 L -10.3142,27.6719 L -10.3526,27.6335 L -10.3533,27.6327 L -10.4191,27.5614 L -10.4278,27.5516
 L -10.4644,27.5095 L -10.4653,27.5087 L -10.5274,27.4374 L -10.5358,27.4276 L -10.5706,27.3855 L -10.5713,27.3847
 L -10.5877,27.3646 L -10.6096,27.3371 L -10.6316,27.3097 L -10.6398,27.2994 L -10.6746,27.2555 L -10.6753,27.2547
 L -10.6759,27.2538 L -10.7088,27.2099 L -10.7655,27.135 L -10.7733,27.1247 L -10.8263,27.0479 L -10.8335,27.0374
 L -10.8646,26.9917 L -10.8653,26.9907 L -10.9164,26.9139 L -10.9233,26.9034 L -10.9398,26.876 L -10.9526,26.8577
 L -10.9533,26.8567 L -10.999,26.7799 L -11.0053,26.7692 L -11.0346,26.7217 L -11.0353,26.7207 L -11.0791,26.6421
 L -11.0851,26.6314 L -11.1107,26.5857 L -11.1113,26.5847 L -11.1118,26.5838 L -11.1355,26.5381 L -11.141,26.5273
 L -11.1813,26.4487 L -11.216,26.3701 L -11.2208,26.3592 L -11.2427,26.3117 L -11.2433,26.3107 L -11.2436,26.3096
 L -11.2619,26.2639 L -11.2966,26.1853 L -11.3013,26.1747 L -11.3305,26.0961 L -11.3345,26.0854 L -11.3509,26.0397
 L -11.3513,26.0387 L -11.375,25.9601 L -11.3785,25.9494 L -11.3803,25.9457 L -11.3931,25.9037 L -11.3933,25.9027
 L -11.4152,25.8259 L -11.4181,25.8154 L -11.4309,25.7715 L -11.4313,25.7707 L -11.4314,25.7696 L -11.4406,25.7239
 L -11.4588,25.6471 L -11.4613,25.6367 L -11.4667,25.5983 L -11.4741,25.5617 L -11.4758,25.5516 L -11.4849,25.5077
 L -11.4853,25.5067 L -11.4926,25.4335 L -11.4936,25.4236 L -11.4991,25.3815 L -11.4993,25.3807 L -11.4994,25.3798
 L -11.5013,25.3359 L -11.5049,25.2774 L -11.5067,25.2646 L -11.5073,25.2547 L -11.5091,25.1852 z
M 6.27074,27.6755 L 6.27074,27.6747 L 6.27258,27.6052 L 6.27275,27.5956 L 6.27275,27.5527 L 6.27823,27.4814
 L 6.27875,27.4716 L 6.28057,27.4295 L 6.28075,27.4287 L 6.2844,27.4067 L 6.28989,27.3555 L 6.29109,27.3456
 L 6.29657,27.3035 L 6.29675,27.3027 L 6.30954,27.2259 L 6.31126,27.2156 L 6.31858,27.1717 L 6.31875,27.1707
 L 6.33703,27.0939 L 6.33943,27.0834 L 6.34858,27.0395 L 6.34875,27.0387 L 6.36886,26.9619 L 6.37178,26.9514
 L 6.3864,26.9057 L 6.38675,26.9047 L 6.38692,26.9038 L 6.40154,26.8581 L 6.42531,26.7813 L 6.42875,26.7707
 L 6.42909,26.7696 L 6.44554,26.7239 L 6.47479,26.6453 L 6.47874,26.6347 L 6.47926,26.6336 L 6.49937,26.5879
 L 6.53228,26.5093 L 6.53675,26.4987 L 6.57331,26.4182 L 6.57829,26.4072 L 6.58743,26.3889 L 6.5984,26.3615
 L 6.59875,26.3607 L 6.64079,26.2802 L 6.64629,26.2694 L 6.66823,26.2237 L 6.66875,26.2227 L 6.71262,26.144
 L 6.71864,26.1334 L 6.74423,26.0877 L 6.74475,26.0867 L 6.74544,26.0858 L 6.77469,26.0401 L 6.82038,25.9615
 L 6.82674,25.9507 L 6.87793,25.8739 L 6.88481,25.8634 L 6.90126,25.8396 L 6.91406,25.8177 L 6.91475,25.8167
 L 6.91526,25.8158 L 6.94634,25.7719 L 6.99935,25.6951 L 7.00674,25.6847 L 7.06342,25.6097 L 7.07116,25.5994
 L 7.10406,25.5555 L 7.10474,25.5547 L 7.14131,25.5071 L 7.16507,25.4797 L 7.17315,25.4694 L 7.20606,25.4255
 L 7.20675,25.4247 L 7.2689,25.3515 L 7.27733,25.3417 L 7.27819,25.3409 L 7.31475,25.3007 L 7.31561,25.2998
 L 7.35217,25.2578 L 7.41798,25.1865 L 7.42675,25.1767 L 7.49256,25.1072 L 7.5015,25.0979 L 7.54172,25.0577
 L 7.54275,25.0567 L 7.54361,25.0558 L 7.582,25.0174 L 7.65147,24.9498 L 7.66075,24.9407 L 7.73204,24.8767
 L 7.74184,24.8679 L 7.78389,24.8313 L 7.78474,24.8307 L 7.85604,24.7685 L 7.86584,24.7599 L 7.90789,24.7233
 L 7.90874,24.7227 L 7.9252,24.7099 L 7.9837,24.6642 L 7.99401,24.6561 L 8.03789,24.6213 L 8.03875,24.6207
 L 8.1137,24.564 L 8.12384,24.5563 L 8.16772,24.5233 L 8.16875,24.5227 L 8.24553,24.4696 L 8.25601,24.4623
 L 8.30172,24.4312 L 8.30275,24.4307 L 8.30361,24.4298 L 8.34748,24.3987 L 8.42609,24.3494 L 8.43674,24.3427
 L 8.51352,24.2951 L 8.52418,24.2886 L 8.57171,24.2612 L 8.57275,24.2607 L 8.65135,24.2168 L 8.66201,24.2108
 L 8.70772,24.1852 L 8.70875,24.1847 L 8.70961,24.1841 L 8.75531,24.1604 L 8.76167,24.1571 L 8.84028,24.1169
 L 8.84475,24.1147 L 8.92336,24.0781 L 8.93419,24.0731 L 8.98172,24.053 L 8.98275,24.0527 L 8.98378,24.0523
 L 9.02948,24.0322 L 9.10809,23.9993 L 9.11874,23.9947 L 9.19736,23.9654 L 9.20802,23.9615 L 9.25371,23.945
 L 9.25475,23.9447 L 9.33153,23.9191 L 9.34218,23.9156 L 9.38789,23.901 L 9.38875,23.9007 L 9.46735,23.8787
 L 9.47801,23.8758 L 9.52189,23.8648 L 9.52275,23.8647 L 9.52378,23.8643 L 9.56948,23.8552 L 9.64626,23.8369
 L 9.65675,23.8347 L 9.69331,23.8273 L 9.7317,23.8219 L 9.74184,23.8201 L 9.78572,23.811 L 9.78675,23.8107
 L 9.85987,23.8033 L 9.86984,23.8021 L 9.91189,23.7967 L 9.91275,23.7967 L 9.91361,23.7965 L 9.95748,23.7928
 L 10.0288,23.7892 L 10.0387,23.7887 L 10.1082,23.7868 L 10.1177,23.7867 L 10.1616,23.7867 L 10.2,23.7885
 L 10.2695,23.7921 L 10.2787,23.7927 L 10.3427,23.8 L 10.3517,23.801 L 10.3919,23.8047 L 10.3927,23.8047
 L 10.3934,23.8048 L 10.43,23.8121 L 10.494,23.8249 L 10.5027,23.8267 L 10.5631,23.8413 L 10.5713,23.8433
 L 10.6079,23.8525 L 10.6087,23.8527 L 10.6094,23.8528 L 10.6423,23.8638 L 10.7008,23.8839 L 10.7087,23.8867
 L 10.7654,23.9104 L 10.773,23.9137 L 10.8041,23.9283 L 10.8047,23.9287 L 10.8054,23.929 L 10.8365,23.9455
 L 10.8877,23.9729 L 10.8947,23.9767 L 10.9441,24.0077 L 10.951,24.012 L 10.9802,24.0303 L 10.9808,24.0307
 L 11.0264,24.0672 L 11.0328,24.072 L 11.0602,24.0903 L 11.0607,24.0907 L 11.0937,24.1217 L 11.1028,24.1309
 L 11.1085,24.1362 L 11.1341,24.1581 L 11.1348,24.1587 L 11.1351,24.1592 L 11.157,24.1848 L 11.1625,24.1906
 L 11.2028,24.2327 L 11.2074,24.239 L 11.2403,24.2847 L 11.2622,24.3121 L 11.2627,24.3127 L 11.267,24.3194
 L 11.2981,24.3687 L 11.3164,24.398 L 11.3167,24.3987 L 11.3205,24.4057 L 11.348,24.4569 L 11.3644,24.488
 L 11.3647,24.4887 L 11.368,24.4962 L 11.3918,24.5511 L 11.4064,24.584 L 11.4067,24.5847 L 11.4095,24.5926
 L 11.4296,24.6492 L 11.4388,24.684 L 11.4388,24.6847 L 11.4412,24.6931 L 11.4576,24.7552 L 11.4668,24.79
 L 11.4668,24.7907 L 11.4685,24.7993 L 11.4813,24.8632 L 11.4886,24.8998 L 11.4887,24.9007 L 11.4896,24.9098
 L 11.4969,24.9756 L 11.5006,25.014 L 11.5007,25.0147 L 11.5013,25.0239 L 11.5049,25.0934 L 11.5067,25.1318
 L 11.5067,25.1327 L 11.5066,25.1423 L 11.5047,25.2136 L 11.5047,25.2555 L 11.5029,25.2976 L 11.5022,25.3075
 L 11.4967,25.3807 L 11.4955,25.3906 L 11.4882,25.4638 L 11.4827,25.5058 L 11.4827,25.5067 L 11.4824,25.5077
 L 11.4733,25.5516 L 11.4715,25.5617 L 11.4587,25.6367 L 11.4563,25.6471 L 11.4381,25.7239 L 11.4289,25.7696
 L 11.4287,25.7707 L 11.426,25.7811 L 11.4059,25.8579 L 11.3913,25.9018 L 11.3907,25.9027 L 11.3906,25.9037
 L 11.376,25.9494 L 11.3725,25.9601 L 11.3487,26.0387 L 11.3448,26.0493 L 11.3155,26.1279 L 11.3064,26.1517
 L 11.2991,26.1736 L 11.2987,26.1747 L 11.2941,26.1853 L 11.2594,26.2639 L 11.2411,26.3096 L 11.2407,26.3107
 L 11.2402,26.3117 L 11.2201,26.3592 L 11.2153,26.3701 L 11.1787,26.4487 L 11.1696,26.4669 L 11.1641,26.4778
 L 11.133,26.5381 L 11.1093,26.5838 L 11.1087,26.5847 L 11.1027,26.5955 L 11.0589,26.6741 L 11.0333,26.7198
 L 11.0327,26.7207 L 11.0264,26.7313 L 10.9789,26.8099 L 10.9514,26.8556 L 10.9507,26.8567 L 10.9439,26.8673
 L 10.8927,26.9441 L 10.8634,26.9898 L 10.8627,26.9907 L 10.8622,26.9917 L 10.8312,27.0374 L 10.8238,27.0479
 L 10.7909,27.0954 L 10.7707,27.1247 L 10.763,27.135 L 10.7082,27.2099 L 10.6734,27.2538 L 10.6727,27.2547
 L 10.6647,27.2648 L 10.6628,27.2703 L 10.6062,27.3379 L 10.5714,27.3836 L 10.5707,27.3847 L 10.5623,27.3945
 L 10.5002,27.4658 L 10.4636,27.5078 L 10.4627,27.5087 L 10.454,27.5183 L 10.39,27.5896 L 10.3516,27.6316
 L 10.3507,27.6327 L 10.3418,27.6419 L 10.276,27.7114 L 10.2358,27.7498 L 10.2347,27.7507 L 10.2255,27.7599
 L 10.1578,27.8276 L 10.1176,27.866 L 10.1167,27.8667 L 10.1069,27.8754 L 10.0357,27.9394 L 9.9936,27.9778
 L 9.99274,27.9787 L 9.98295,27.9871 L 9.91165,28.0492 L 9.8696,28.0858 L 9.86874,28.0867 L 9.8586,28.0947
 L 9.78366,28.1532 L 9.73978,28.188 L 9.73875,28.1887 L 9.73789,28.1893 L 9.69402,28.2223 L 9.6837,28.23
 L 9.60875,28.2867 L 9.59826,28.2941 L 9.52148,28.3471 L 9.47761,28.3781 L 9.47675,28.3787 L 9.46609,28.3855
 L 9.38748,28.4367 L 9.34178,28.466 L 9.34074,28.4667 L 9.33009,28.473 L 9.25331,28.5187 L 9.20761,28.548
 L 9.20675,28.5487 L 9.19592,28.5545 L 9.11731,28.5984 L 9.07161,28.624 L 9.07075,28.6247 L 9.06972,28.6252
 L 9.02218,28.6471 L 9.01135,28.6524 L 8.97845,28.6707 L 8.93275,28.6927 L 8.92192,28.6976 L 8.84331,28.7342
 L 8.79578,28.7561 L 8.79475,28.7567 L 8.79389,28.757 L 8.75002,28.7753 L 8.73919,28.7799 L 8.65874,28.8147
 L 8.64809,28.8184 L 8.56948,28.8477 L 8.52378,28.8623 L 8.52275,28.8627 L 8.51209,28.8663 L 8.43531,28.8919
 L 8.38961,28.9065 L 8.38875,28.9067 L 8.37809,28.9096 L 8.29948,28.9315 L 8.29582,28.9333 L 8.25561,28.9443
 L 8.25475,28.9447 L 8.25371,28.9448 L 8.20984,28.954 L 8.19936,28.9564 L 8.12075,28.9747 L 8.11061,28.9764
 L 8.03566,28.9892 L 7.99178,28.9965 L 7.99075,28.9967 L 7.98078,28.9979 L 7.90766,29.007 L 7.86561,29.0125
 L 7.86389,29.0128 L 7.82002,29.0147 L 7.81022,29.0152 L 7.74075,29.0207 L 7.73112,29.0208 L 7.65983,29.0208
 L 7.6196,29.0227 L 7.61874,29.0227 L 7.61152,29.0223 L 7.54206,29.0187 L 7.54,29.0185 L 7.49978,29.0167
 L 7.49875,29.0167 L 7.49806,29.0165 L 7.45967,29.011 L 7.45073,29.01 L 7.38675,29.0027 L 7.37798,29.0011
 L 7.31217,28.9901 L 7.27744,28.9828 L 7.27675,28.9827 L 7.26833,28.9806 L 7.20617,28.9641 L 7.17143,28.955
 L 7.17075,28.9547 L 7.16284,28.9521 L 7.10251,28.932 L 7.06961,28.9228 L 7.06875,28.9227 L 7.06806,28.9221
 L 7.03698,28.9075 L 7.02942,28.9044 L 6.97275,28.8807 L 6.96553,28.8769 L 6.91434,28.8495 L 6.88326,28.833
 L 6.88274,28.8327 L 6.88206,28.8323 L 6.85281,28.814 L 6.8461,28.8096 L 6.79675,28.7767 L 6.79056,28.772
 L 6.74486,28.7373 L 6.71744,28.7172 L 6.71675,28.7167 L 6.71108,28.7113 L 6.66903,28.6729 L 6.64526,28.6492
 L 6.64474,28.6487 L 6.60453,28.6066 L 6.59903,28.6009 L 6.57709,28.5772 L 6.57674,28.5767 L 6.57623,28.576
 L 6.55612,28.5486 L 6.52688,28.5102 L 6.52139,28.5028 L 6.51675,28.4967 L 6.48384,28.4473 L 6.47938,28.4406
 L 6.46109,28.4113 L 6.46075,28.4107 L 6.43333,28.3595 L 6.42954,28.3524 L 6.41309,28.3213 L 6.41275,28.3207
 L 6.38898,28.264 L 6.38572,28.2563 L 6.37109,28.2252 L 6.37075,28.2247 L 6.37058,28.2238 L 6.35961,28.1891
 L 6.34132,28.1306 L 6.33875,28.1227 L 6.32229,28.0623 L 6.32006,28.0541 L 6.31458,28.0358 L 6.31092,28.0175
 L 6.31075,28.0167 L 6.29795,27.9545 L 6.29623,27.9459 L 6.29075,27.9075 L 6.29075,27.9067 L 6.28161,27.8408
 L 6.28057,27.8319 L 6.27692,27.7953 L 6.27675,27.7947 L 6.27492,27.7252 L 6.27441,27.7157 z
M 57.2767,-29.4903 L 57.2767,-29.6745 L 57.2769,-29.6903 L 57.2787,-29.758 L 57.2787,-29.7607 L 57.2806,-29.8265
 L 57.2842,-29.9198 L 57.2861,-29.9417 L 57.2868,-29.9573 L 57.2941,-30.0725 L 57.2949,-30.088 L 57.2949,-30.0916
 L 57.2986,-30.1538 L 57.2988,-30.1553 L 57.3097,-30.2687 L 57.3113,-30.2842 L 57.3186,-30.35 L 57.3187,-30.3513
 L 57.3315,-30.4629 L 57.3333,-30.4782 L 57.3406,-30.544 L 57.3409,-30.5467 L 57.3501,-30.6107 L 57.3665,-30.7222
 L 57.3688,-30.7373 L 57.387,-30.8452 L 57.3898,-30.86 L 57.4026,-30.924 L 57.4027,-30.9253 L 57.4247,-31.0314
 L 57.4278,-31.0458 L 57.4406,-31.108 L 57.4408,-31.1093 L 57.4444,-31.1258 L 57.4645,-31.2135 L 57.468,-31.2276
 L 57.4826,-31.288 L 57.4827,-31.2893 L 57.5102,-31.3899 L 57.514,-31.4036 L 57.5304,-31.464 L 57.5307,-31.4653
 L 57.56,-31.5622 L 57.5641,-31.5755 L 57.5824,-31.6321 L 57.5827,-31.6333 L 57.5848,-31.6395 L 57.6177,-31.7346
 L 57.6201,-31.7415 L 57.6384,-31.7981 L 57.6387,-31.7993 L 57.6753,-31.8889 L 57.6803,-31.9013 L 57.7004,-31.9561
 L 57.7008,-31.9573 L 57.7373,-32.0451 L 57.7425,-32.057 L 57.7644,-32.1081 L 57.7647,-32.1093 L 57.805,-32.1916
 L 57.8103,-32.203 L 57.8322,-32.2523 L 57.8327,-32.2533 L 57.8766,-32.3338 L 57.8825,-32.3446 L 57.9062,-32.3885
 L 57.9068,-32.3893 L 57.9073,-32.3904 L 57.9329,-32.4343 L 57.9767,-32.5092 L 57.9827,-32.5193 L 57.9833,-32.5202
 L 58.0089,-32.5623 L 58.0345,-32.5988 L 58.0546,-32.6317 L 58.0608,-32.6413 L 58.0614,-32.6422 L 58.0889,-32.6806
 L 58.1364,-32.7464 L 58.1428,-32.7553 L 58.1921,-32.8157 L 58.1988,-32.8237 L 58.2281,-32.8585 L 58.2288,-32.8593
 L 58.2799,-32.9124 L 58.2868,-32.9197 L 58.3161,-32.9527 L 58.3679,-33.0045 L 58.375,-33.0112 L 58.4042,-33.0387
 L 58.4047,-33.0393 L 58.4056,-33.04 L 58.4385,-33.0675 L 58.4915,-33.1113 L 58.4987,-33.1173 L 58.5518,-33.1539
 L 58.5592,-33.1591 L 58.5921,-33.1828 L 58.5928,-33.1833 L 58.5934,-33.1837 L 58.6245,-33.202 L 58.6812,-33.2349
 L 58.6888,-33.2393 L 58.7436,-33.2668 L 58.7512,-33.2704 L 58.7841,-33.285 L 58.7848,-33.2853 L 58.8414,-33.3073
 L 58.8492,-33.3102 L 58.8821,-33.323 L 58.8828,-33.3233 L 58.9394,-33.338 L 58.9472,-33.3399 L 58.9801,-33.349
 L 58.9808,-33.3493 L 58.9816,-33.3493 L 59.0163,-33.3548 L 59.073,-33.3621 L 59.0807,-33.3633 L 59.1374,-33.367
 L 59.1453,-33.3675 L 59.1801,-33.3693 L 59.1814,-33.3693 L 59.2162,-33.3675 L 59.2728,-33.3639 L 59.2807,-33.3633
 L 59.3374,-33.356 L 59.3452,-33.3548 L 59.3744,-33.3493 L 59.3808,-33.3493 L 59.4374,-33.3329 L 59.4452,-33.3307
 L 59.4781,-33.3233 L 59.4788,-33.3233 L 59.5354,-33.3014 L 59.5432,-33.2985 L 59.5761,-33.2857 L 59.5768,-33.2853
 L 59.6334,-33.2598 L 59.6412,-33.2561 L 59.6722,-33.2397 L 59.6728,-33.2393 L 59.7294,-33.2064 L 59.737,-33.202
 L 59.7681,-33.1837 L 59.7688,-33.1833 L 59.7694,-33.1828 L 59.8023,-33.1591 L 59.8554,-33.1225 L 59.8627,-33.1173
 L 59.9158,-33.0735 L 59.923,-33.0675 L 59.9559,-33.04 L 59.9567,-33.0393 L 60.0079,-32.99 L 60.015,-32.9833
 L 60.0442,-32.954 L 60.0447,-32.9533 L 60.0454,-32.9527 L 60.0747,-32.9197 L 60.0816,-32.9124 L 60.1328,-32.8593
 L 60.1396,-32.8511 L 60.189,-32.7908 L 60.2182,-32.756 L 60.2188,-32.7553 L 60.2193,-32.7545 L 60.2467,-32.7161
 L 60.2532,-32.7072 L 60.3008,-32.6413 L 60.3071,-32.6317 L 60.3528,-32.5623 L 60.3784,-32.5202 L 60.3788,-32.5193
 L 60.3848,-32.5092 L 60.4305,-32.4343 L 60.4542,-32.3904 L 60.4548,-32.3893 L 60.4606,-32.3787 L 60.5026,-32.3001
 L 60.5282,-32.2544 L 60.5287,-32.2533 L 60.5293,-32.2523 L 60.5512,-32.203 L 60.5565,-32.1916 L 60.5967,-32.1093
 L 60.6017,-32.0973 L 60.6401,-32.0096 L 60.6602,-31.9584 L 60.6608,-31.9573 L 60.6656,-31.9448 L 60.7003,-31.8534
 L 60.7222,-31.8004 L 60.7227,-31.7993 L 60.7231,-31.7981 L 60.7414,-31.7415 L 60.7458,-31.7284 L 60.7787,-31.6333
 L 60.7829,-31.6199 L 60.8121,-31.523 L 60.8304,-31.4664 L 60.8307,-31.4653 L 60.8311,-31.464 L 60.8475,-31.4036
 L 60.8513,-31.3899 L 60.8788,-31.2893 L 60.8822,-31.2751 L 60.906,-31.1709 L 60.9206,-31.1105 L 60.9208,-31.1093
 L 60.9211,-31.108 L 60.9339,-31.0458 L 60.9368,-31.0314 L 60.9587,-30.9253 L 60.9613,-30.9106 L 60.9814,-30.8009
 L 60.9924,-30.7387 L 60.9928,-30.7373 L 60.9929,-30.736 L 61.0021,-30.672 L 61.0024,-30.6703 L 61.0043,-30.6569
 L 61.0208,-30.5453 L 61.0226,-30.53 L 61.0354,-30.4185 L 61.0427,-30.3527 L 61.0427,-30.3513 L 61.0429,-30.35
 L 61.0502,-30.286 L 61.0502,-30.2842 L 61.0518,-30.2687 L 61.0628,-30.1553 L 61.0701,-30.042 L 61.0711,-30.0264
 L 61.0766,-29.9587 L 61.0768,-29.9573 L 61.0773,-29.9417 L 61.0809,-29.8265 L 61.0827,-29.7607 L 61.0827,-29.7593
 L 61.0831,-29.7437 L 61.0849,-29.6285 L 61.0868,-29.5627 L 61.0868,-29.558 L 61.0849,-29.4903 L 61.0846,-29.4747
 L 61.0827,-29.3613 L 61.0822,-29.3455 L 61.0786,-29.2285 L 61.0768,-29.1773 L 61.0768,-29.1613 L 61.0757,-29.1457
 L 61.0666,-29.0324 L 61.0629,-28.9647 L 61.0628,-28.9633 L 61.0612,-28.9479 L 61.0502,-28.8345 L 61.0429,-28.7687
 L 61.0427,-28.7673 L 61.041,-28.752 L 61.0374,-28.7155 L 61.0282,-28.6387 L 61.0209,-28.5747 L 61.0208,-28.5733
 L 61.0185,-28.5582 L 61.0112,-28.5089 L 61.0021,-28.4485 L 60.9929,-28.3827 L 60.9928,-28.3813 L 60.9902,-28.3666
 L 60.9719,-28.2587 L 60.9591,-28.1947 L 60.9587,-28.1933 L 60.9558,-28.1789 L 60.9339,-28.0729 L 60.9211,-28.0107
 L 60.9208,-28.0093 L 60.9173,-27.9951 L 60.8935,-27.8909 L 60.8789,-27.8305 L 60.8788,-27.8293 L 60.875,-27.8156
 L 60.8475,-27.715 L 60.8311,-27.6565 L 60.8307,-27.6553 L 60.8266,-27.6419 L 60.7974,-27.5432 L 60.7791,-27.4847
 L 60.7787,-27.4833 L 60.7782,-27.4823 L 60.7581,-27.4275 L 60.7538,-27.4146 L 60.7227,-27.3213 L 60.7178,-27.3088
 L 60.6812,-27.2156 L 60.6611,-27.1625 L 60.6608,-27.1613 L 60.6602,-27.1603 L 60.6401,-27.1091 L 60.6351,-27.0971
 L 60.5967,-27.0093 L 60.5914,-26.998 L 60.5512,-26.9157 L 60.5293,-26.8664 L 60.5287,-26.8653 L 60.5229,-26.8545
 L 60.4809,-26.7759 L 60.4553,-26.7284 L 60.4548,-26.7273 L 60.4542,-26.7265 L 60.4305,-26.6826 L 60.4245,-26.6723
 L 60.3788,-26.5973 L 60.3726,-26.5879 L 60.3287,-26.5184 L 60.3013,-26.4782 L 60.3008,-26.4773 L 60.3001,-26.4763
 L 60.2946,-26.469 L 60.2525,-26.4105 L 60.2467,-26.4026 L 60.2193,-26.366 L 60.2188,-26.3653 L 60.2182,-26.3645
 L 60.189,-26.3279 L 60.1821,-26.3197 L 60.1328,-26.2593 L 60.0816,-26.2045 L 60.0747,-26.1969 L 60.0454,-26.1659
 L 60.0447,-26.1653 L 60.0379,-26.1585 L 59.9867,-26.1091 L 59.9684,-26.089 L 59.9574,-26.0799 L 59.9567,-26.0793
 L 59.9495,-26.0733 L 59.8965,-26.0295 L 59.8636,-26.0039 L 59.8627,-26.0033 L 59.8554,-25.998 L 59.8023,-25.9596
 L 59.7694,-25.9359 L 59.7688,-25.9353 L 59.7681,-25.935 L 59.737,-25.9167 L 59.7294,-25.9122 L 59.6728,-25.8793
 L 59.6652,-25.8757 L 59.5774,-25.8319 L 59.5768,-25.8313 L 59.569,-25.8286 L 59.5142,-25.8085 L 59.4794,-25.7975
 L 59.4788,-25.7973 L 59.471,-25.7951 L 59.4143,-25.7787 L 59.3814,-25.7713 L 59.3808,-25.7713 L 59.3728,-25.77
 L 59.3143,-25.7608 L 59.2814,-25.7553 L 59.2807,-25.7553 L 59.2728,-25.7548 L 59.2162,-25.7512 L 59.1814,-25.7493
 L 59.1807,-25.7493 L 59.1728,-25.7499 L 59.1143,-25.7535 L 59.0814,-25.7553 L 59.0807,-25.7553 L 59.073,-25.7565
 L 59.0163,-25.7657 L 58.9816,-25.7712 L 58.9808,-25.7713 L 58.973,-25.7732 L 58.9163,-25.7879 L 58.8834,-25.797
 L 58.8828,-25.7973 L 58.875,-25.8001 L 58.8183,-25.8202 L 58.7854,-25.8312 L 58.7848,-25.8313 L 58.7841,-25.8319
 L 58.7512,-25.8483 L 58.7436,-25.8519 L 58.6888,-25.8793 L 58.6812,-25.8838 L 58.6245,-25.9167 L 58.5934,-25.935
 L 58.5928,-25.9353 L 58.5854,-25.9407 L 58.5305,-25.9791 L 58.4994,-26.0028 L 58.4987,-26.0033 L 58.4915,-26.0094
 L 58.4385,-26.0532 L 58.4056,-26.0788 L 58.4047,-26.0793 L 58.3977,-26.086 L 58.3483,-26.1354 L 58.3173,-26.1647
 L 58.3167,-26.1653 L 58.3161,-26.1659 L 58.2868,-26.1969 L 58.2799,-26.2045 L 58.2288,-26.2593 L 58.1794,-26.3197
 L 58.1727,-26.3279 L 58.1434,-26.3645 L 58.1428,-26.3653 L 58.1422,-26.366 L 58.1148,-26.4026 L 58.0673,-26.4684
 L 58.0608,-26.4773 L 58.015,-26.5468 L 58.0089,-26.5563 L 57.9833,-26.5965 L 57.9827,-26.5973 L 57.9389,-26.6723
 L 57.9329,-26.6826 L 57.9073,-26.7265 L 57.9068,-26.7273 L 57.8647,-26.806 L 57.8589,-26.8168 L 57.8333,-26.8643
 L 57.8327,-26.8653 L 57.8322,-26.8664 L 57.8103,-26.9157 L 57.7701,-26.998 L 57.7647,-27.0093 L 57.7282,-27.0971
 L 57.7232,-27.1091 L 57.7013,-27.1603 L 57.7008,-27.1613 L 57.666,-27.2527 L 57.6612,-27.2653 L 57.6393,-27.3201
 L 57.6387,-27.3213 L 57.6384,-27.3224 L 57.6201,-27.3754 L 57.5872,-27.4705 L 57.5827,-27.4833 L 57.5535,-27.5821
 L 57.5494,-27.5955 L 57.5311,-27.654 L 57.5307,-27.6553 L 57.5033,-27.7559 L 57.4995,-27.7696 L 57.4831,-27.8281
 L 57.4827,-27.8293 L 57.4826,-27.8305 L 57.468,-27.8909 L 57.4442,-27.9951 L 57.4408,-28.0093 L 57.4334,-28.0496
 L 57.4188,-28.1154 L 57.4157,-28.13 L 57.4029,-28.1921 L 57.4027,-28.1933 L 57.3826,-28.303 L 57.3801,-28.318
 L 57.3727,-28.3655 L 57.3691,-28.3801 L 57.3688,-28.3813 L 57.3523,-28.4929 L 57.3501,-28.508 L 57.3409,-28.572
 L 57.3408,-28.5733 L 57.3406,-28.5747 L 57.3333,-28.6387 L 57.3315,-28.654 L 57.3187,-28.7673 L 57.3078,-28.8807
 L 57.3062,-28.8962 L 57.2989,-28.962 L 57.2988,-28.9633 L 57.2986,-28.9647 L 57.2949,-29.0324 L 57.2876,-29.1457
 L 57.2868,-29.1613 L 57.2813,-29.2747 L 57.2806,-29.2903 L 57.2806,-29.3141 L 57.2787,-29.3598 L 57.2787,-29.3613
 L 57.2769,-29.4747 z
" stroke="black" fill="lightgray" stroke-width="0.5"/>
</svg>
