<?xml version="1.0" standalone="no"?>
<!DOCTYPE svg PUBLIC "-//W3C//DTD SVG 1.1//EN" "http://www.w3.org/Graphics/SVG/1.1/DTD/svg11.dtd">
<svg width="128mm" height="70mm" viewBox="-64 -35 128 70" xmlns="http://www.w3.org/2000/svg" version="1.1">
<title>OpenSCAD Model</title>
<path d="
M -63.9373,-34.9653 L -62.6694,-25.3298 L -62.5985,-24.7915 L -62.5778,-24.6315 L -62.5776,-24.6295 L -62.5775,-24.6289
 L -62.5573,-24.477 L -62.4408,-23.5937 L -62.4207,-23.4405 L -62.3068,-22.576 L -62.3033,-22.5473 L -57.3049,-10.4812
 L -57.3049,-10.4812 L -57.3031,-10.4769 L -57.2486,-10.3453 L -57.024,-9.80231 L -57.023,-9.79975 L -57.0226,-9.79886
 L -56.8756,-9.44439 L -56.804,-9.27213 L -56.4461,-8.40782 L -56.4458,-8.40698 L -56.4454,-8.40608 L -56.3716,-8.22805
 L -56.0266,-7.39515 L -56.0266,-7.39504 L -56.0264,-7.39466 L -55.9507,-7.21227 L -55.8593,-6.99134 L -47.9087,3.36993
 L -47.4618,3.95277 L -47.4255,4.00032 L -47.2631,4.2121 L -47.2614,4.21433 L -47.261,4.21475 L -46.631,5.03539
 L -46.4586,5.26022 L -45.8672,6.03105 L -45.686,6.26705 L -45.6093,6.36666 L -44.6776,7.08187 L -44.2761,7.39018
 L -44.2759,7.3903 L -44.2744,7.39144 L -43.3047,8.13476 L -43.1983,8.21697 L -42.86,8.47689 L -42.8587,8.4779
 L -42.8566,8.47949 L -42.6125,8.66659 L -32.2513,16.6187 L -30.565,17.3168 L -29.4437,17.7815 L -29.4422,17.7822
 L -29.4403,17.783 L -28.9297,17.9943 L -28.7614,18.0639 L -16.6953,23.0607 L -8.40034,32.2957 L -8.04633,32.6905
 L -8.04557,32.6914 L -8.04381,32.6933 L -7.93186,32.8173 L -7.67213,33.1069 L -7.33607,33.4811 L -7.33522,33.482
 L -7.33443,33.4829 L -6.9599,33.8996 L -6.67562,34.216 L -6.30187,34.6324 L -6.06631,34.8944 L -6.00125,34.9667
 L 5.99875,34.9667 L 6.02519,34.9375 L 6.02519,34.9375 L 6.02522,34.9375 L 6.14053,34.8092 L 6.46538,34.4475
 L 14.7603,25.2125 L 15.2516,24.6656 L 15.2531,24.6639 L 15.2534,24.6636 L 15.3874,24.5144 L 15.7661,24.0922
 L 15.908,23.9347 L 15.908,23.9347 L 15.909,23.9336 L 15.909,23.9332 L 16.3114,23.4856 L 16.3118,23.4851
 L 16.3118,23.485 L 16.4606,23.3192 L 16.6927,23.0607 L 17.1014,22.8913 L 17.412,22.7631 L 17.4125,22.7629
 L 17.4129,22.7627 L 18.3755,22.3636 L 18.6659,22.2437 L 18.6677,22.243 L 18.6683,22.2427 L 19.502,21.8972
 L 19.7033,21.814 L 19.7047,21.8134 L 19.707,21.8124 L 19.973,21.7021 L 20.1783,21.6172 L 20.1826,21.6155
 L 20.1826,21.6155 L 32.2487,16.6187 L 32.8273,16.1746 L 32.9931,16.0477 L 32.9937,16.0473 L 32.994,16.047
 L 33.7408,15.4735 L 33.9005,15.3514 L 33.9023,15.35 L 33.9026,15.3498 L 34.6631,14.7661 L 34.6846,14.7495
 L 34.8372,14.6324 L 35.2455,14.3187 L 45.6068,6.36666 L 45.8694,6.02429 L 45.9657,5.89971 L 45.966,5.89936
 L 45.9661,5.89913 L 46.0541,5.78427 L 54.0046,-4.577 L 54.0054,-4.57803 L 54.0069,-4.57997 L 54.4616,-5.17296
 L 54.5686,-5.31238 L 54.5695,-5.31359 L 54.5702,-5.31445 L 55.1138,-6.02324 L 55.1617,-6.08546 L 55.5104,-6.53952
 L 55.7787,-6.88904 L 55.8568,-6.99134 L 55.8635,-7.00747 L 55.8635,-7.00747 L 55.8635,-7.00749 L 56.1381,-7.66974
 L 61.1364,-19.7359 L 61.137,-19.7372 L 61.1379,-19.7394 L 61.6341,-20.938 L 61.6448,-20.9635 L 61.9889,-21.794
 L 61.989,-21.7942 L 61.9893,-21.7949 L 62.0408,-21.92 L 62.3008,-22.5473 L 62.3299,-22.7687 L 62.3474,-22.9009
 L 62.3474,-22.9012 L 62.3474,-22.9014 L 62.3721,-23.0888 L 63.6414,-32.7238 L 63.7337,-33.4247 L 63.8682,-34.4451
 L 63.9368,-34.9653 L 55.9368,-34.9653 L 47.8128,-26.4293 L 42.8668,-14.4913 L 35.0007,-4.23934 L 24.7487,3.62866
 L 12.8107,8.57266 L -0.00125122,10.2587 L -12.8113,8.57266 L -24.7513,3.62866 L -35.0033,-4.23934 L -42.8693,-14.4913
 L -47.8153,-26.4293 L -55.9393,-34.9653 z
M -60.8353,-29.5469 L -60.8353,-29.5593 L -60.8348,-29.5876 L -60.8317,-29.7288 L -60.8313,-29.7454 L -60.8313,-29.7718
 L -60.8308,-29.7879 L -60.8295,-29.8161 L -60.8233,-29.9573 L -60.8215,-29.9856 L -60.8137,-30.1252 L -60.8128,-30.1414
 L -60.8113,-30.1553 L -60.8086,-30.1831 L -60.7946,-30.3228 L -60.7928,-30.3389 L -60.7913,-30.3513 L -60.7881,-30.3787
 L -60.7726,-30.5168 L -60.7717,-30.5271 L -60.7708,-30.5329 L -60.7677,-30.5578 L -60.7655,-30.5734 L -60.7614,-30.6008
 L -60.7413,-30.7373 L -60.7386,-30.7517 L -60.7368,-30.7638 L -60.7135,-30.8972 L -60.7104,-30.9129 L -60.7073,-30.9253
 L -60.7019,-30.9513 L -60.6755,-31.0817 L -60.6724,-31.0969 L -60.6693,-31.1093 L -60.663,-31.1349 L -60.6319,-31.2621
 L -60.6288,-31.2769 L -60.6273,-31.2893 L -60.6205,-31.314 L -60.5864,-31.4381 L -60.5824,-31.4529 L -60.5793,-31.4653
 L -60.5716,-31.4891 L -60.5344,-31.6086 L -60.5304,-31.6225 L -60.5273,-31.6333 L -60.5192,-31.6566 L -60.4788,-31.7746
 L -60.4744,-31.7885 L -60.4713,-31.7993 L -60.4623,-31.8213 L -60.4173,-31.933 L -60.4124,-31.9465 L -60.4093,-31.9573
 L -60.4003,-31.9789 L -60.3537,-32.0859 L -60.3484,-32.0985 L -60.3453,-32.1093 L -60.3354,-32.1295 L -60.2857,-32.2319
 L -60.2799,-32.244 L -60.2753,-32.2533 L -60.2649,-32.2731 L -60.2137,-32.3708 L -60.2079,-32.3816 L -60.2033,-32.3893
 L -60.1986,-32.3987 L -60.1923,-32.4094 L -60.1816,-32.4278 L -60.1273,-32.5193 L -60.1226,-32.5271 L -60.1163,-32.5374
 L -60.1051,-32.5544 L -60.0493,-32.6413 L -60.043,-32.6491 L -60.0363,-32.6585 L -60.0242,-32.6746 L -59.9653,-32.7553
 L -59.9603,-32.7612 L -59.9536,-32.7701 L -59.8946,-32.8431 L -59.8875,-32.8516 L -59.8813,-32.8593 L -59.8687,-32.8723
 L -59.8066,-32.9391 L -59.7995,-32.9471 L -59.7933,-32.9533 L -59.7807,-32.9659 L -59.7171,-33.0264 L -59.7095,-33.0331
 L -59.7033,-33.0393 L -59.697,-33.0455 L -59.6894,-33.0523 L -59.6764,-33.063 L -59.6113,-33.1173 L -59.5983,-33.1263
 L -59.5315,-33.1729 L -59.5235,-33.1787 L -59.5173,-33.1833 L -59.511,-33.1864 L -59.5034,-33.1909 L -59.4895,-33.199
 L -59.4213,-33.2393 L -59.4078,-33.2461 L -59.3395,-33.2787 L -59.3315,-33.2822 L -59.3253,-33.2853 L -59.3114,-33.2907
 L -59.2415,-33.3171 L -59.2335,-33.3202 L -59.2273,-33.3233 L -59.2134,-33.3269 L -59.1435,-33.344 L -59.1355,-33.3462
 L -59.1293,-33.3493 L -59.1215,-33.3493 L -59.113,-33.3507 L -59.0991,-33.3525 L -59.0293,-33.3633 L -59.0154,-33.3642
 L -58.944,-33.3689 L -58.9355,-33.3693 L -58.923,-33.3693 L -58.9145,-33.3689 L -58.9006,-33.368 L -58.8293,-33.3633
 L -58.8154,-33.3616 L -58.7455,-33.3507 L -58.737,-33.3493 L -58.7293,-33.3493 L -58.7154,-33.3453 L -58.6455,-33.3251
 L -58.6375,-33.3233 L -58.6313,-33.3233 L -58.6174,-33.318 L -58.5475,-33.2916 L -58.5395,-33.2884 L -58.5333,-33.2853
 L -58.5194,-33.2791 L -58.4495,-33.2465 L -58.4419,-33.2424 L -58.4373,-33.2393 L -58.4234,-33.2313 L -58.3551,-33.1909
 L -58.3528,-33.1896 L -58.3475,-33.1864 L -58.3413,-33.1833 L -58.335,-33.1787 L -58.327,-33.1729 L -58.314,-33.1639
 L -58.2473,-33.1173 L -58.2343,-33.1066 L -58.1691,-33.0523 L -58.1615,-33.0455 L -58.1553,-33.0393 L -58.1423,-33.0272
 L -58.0771,-32.9667 L -58.0699,-32.9596 L -58.0653,-32.9533 L -58.059,-32.9471 L -58.0519,-32.9391 L -57.9898,-32.8723
 L -57.9773,-32.8593 L -57.9167,-32.7849 L -57.9046,-32.7701 L -57.8975,-32.7616 L -57.8913,-32.7553 L -57.8866,-32.7476
 L -57.8799,-32.7382 L -57.8209,-32.6575 L -57.8093,-32.6413 L -57.7534,-32.5544 L -57.7422,-32.5374 L -57.7359,-32.5271
 L -57.7313,-32.5193 L -57.6769,-32.4278 L -57.6662,-32.4094 L -57.6599,-32.3987 L -57.6553,-32.3893 L -57.604,-32.2931
 L -57.5937,-32.2739 L -57.5875,-32.2627 L -57.5813,-32.2533 L -57.5766,-32.244 L -57.5712,-32.2319 L -57.5231,-32.1295
 L -57.5133,-32.1093 L -57.4745,-32.0162 L -57.465,-31.9947 L -57.4588,-31.9792 L -57.4539,-31.9667 L -57.4493,-31.9573
 L -57.4058,-31.8441 L -57.3973,-31.8216 L -57.3919,-31.8087 L -57.3873,-31.7993 L -57.3842,-31.7885 L -57.3797,-31.7746
 L -57.3393,-31.6566 L -57.3313,-31.6333 L -57.294,-31.5123 L -57.2868,-31.4885 L -57.2824,-31.4747 L -57.2793,-31.4653
 L -57.2762,-31.4529 L -57.2721,-31.4381 L -57.238,-31.314 L -57.2313,-31.2893 L -57.2002,-31.1605 L -57.1944,-31.135
 L -57.1908,-31.1202 L -57.1893,-31.1093 L -57.1862,-31.0969 L -57.183,-31.0817 L -57.1566,-30.9513 L -57.1513,-30.9253
 L -57.128,-30.7919 L -57.123,-30.765 L -57.1204,-30.7498 L -57.1173,-30.7373 L -57.1157,-30.7249 L -57.1135,-30.7092
 L -57.0933,-30.5727 L -57.0893,-30.5453 L -57.0722,-30.4072 L -57.0699,-30.3897 L -57.0686,-30.3799 L -57.0673,-30.3638
 L -57.0673,-30.3513 L -57.0642,-30.3389 L -57.0633,-30.3322 L -57.0624,-30.3228 L -57.0499,-30.1831 L -57.0473,-30.1553
 L -57.0455,-30.1276 L -57.0362,-29.9863 L -57.0353,-29.9698 L -57.0353,-29.9573 L -57.029,-29.8161 L -57.0277,-29.7879
 L -57.0273,-29.7718 L -57.0273,-29.7593 L -57.0242,-29.6181 L -57.0237,-29.5899 L -57.0233,-29.5868 L -57.0233,-29.5469
 L -57.0237,-29.5303 L -57.0268,-29.3891 L -57.0273,-29.3613 L -57.0335,-29.2186 L -57.0344,-29.1903 L -57.0353,-29.1738
 L -57.0353,-29.1613 L -57.043,-29.0201 L -57.0448,-28.9923 L -57.0457,-28.9758 L -57.0473,-28.9633 L -57.0597,-28.8237
 L -57.0624,-28.7959 L -57.0642,-28.7798 L -57.0673,-28.7673 L -57.0828,-28.6292 L -57.0841,-28.6131 L -57.0859,-28.6014
 L -57.0877,-28.5858 L -57.0893,-28.5733 L -57.1094,-28.4383 L -57.1094,-28.4368 L -57.1135,-28.4099 L -57.1157,-28.3938
 L -57.1173,-28.3813 L -57.1359,-28.2789 L -57.1405,-28.2479 L -57.145,-28.2214 L -57.1482,-28.2058 L -57.1513,-28.1933
 L -57.1776,-28.063 L -57.183,-28.037 L -57.1862,-28.0218 L -57.1893,-28.0093 L -57.2203,-27.8805 L -57.2261,-27.855
 L -57.2297,-27.8402 L -57.2313,-27.8293 L -57.2654,-27.7052 L -57.2721,-27.6805 L -57.2762,-27.6662 L -57.2793,-27.6553
 L -57.3165,-27.5343 L -57.3241,-27.5101 L -57.3264,-27.502 L -57.3282,-27.4958 L -57.3313,-27.4833 L -57.3359,-27.474
 L -57.3408,-27.4606 L -57.3796,-27.3442 L -57.3873,-27.3213 L -57.4323,-27.2081 L -57.4412,-27.1852 L -57.4462,-27.1722
 L -57.4493,-27.1613 L -57.4539,-27.152 L -57.4588,-27.1395 L -57.5038,-27.0309 L -57.5133,-27.0093 L -57.5614,-26.9069
 L -57.5712,-26.8868 L -57.5766,-26.8747 L -57.5813,-26.8653 L -57.634,-26.7676 L -57.6448,-26.7483 L -57.6506,-26.7367
 L -57.6553,-26.7273 L -57.6599,-26.718 L -57.6662,-26.7073 L -57.7205,-26.6157 L -57.7313,-26.5973 L -57.7871,-26.512
 L -57.7979,-26.495 L -57.8046,-26.4851 L -57.8093,-26.4773 L -57.8682,-26.3966 L -57.8799,-26.3805 L -57.8866,-26.3716
 L -57.8913,-26.3653 L -57.8975,-26.3576 L -57.9046,-26.3486 L -57.9652,-26.2741 L -57.9773,-26.2593 L -57.9898,-26.2459
 L -58.0519,-26.1776 L -58.0555,-26.1736 L -58.059,-26.17 L -58.0653,-26.1653 L -58.1289,-26.1033 L -58.1414,-26.0912
 L -58.149,-26.084 L -58.1553,-26.0793 L -58.2204,-26.025 L -58.233,-26.0143 L -58.241,-26.008 L -58.2473,-26.0033
 L -58.314,-25.9552 L -58.327,-25.9458 L -58.3324,-25.9422 L -58.335,-25.94 L -58.3413,-25.9353 L -58.3475,-25.9322
 L -58.3551,-25.9278 L -58.4234,-25.8874 L -58.4373,-25.8793 L -58.5055,-25.8468 L -58.519,-25.84 L -58.527,-25.836
 L -58.5333,-25.8313 L -58.6031,-25.8065 L -58.617,-25.8016 L -58.625,-25.7989 L -58.6313,-25.7973 L -58.7011,-25.7772
 L -58.715,-25.7731 L -58.723,-25.7713 L -58.7293,-25.7713 L -58.8006,-25.7589 L -58.815,-25.7567 L -58.823,-25.7553
 L -58.8293,-25.7553 L -58.9006,-25.7507 L -58.9145,-25.7498 L -58.923,-25.7493 L -58.9293,-25.7493 L -59.0006,-25.754
 L -59.015,-25.7549 L -59.023,-25.7553 L -59.0293,-25.7553 L -59.0991,-25.7662 L -59.113,-25.7684 L -59.1215,-25.7698
 L -59.1293,-25.7713 L -59.1991,-25.7884 L -59.213,-25.792 L -59.221,-25.7942 L -59.2273,-25.7973 L -59.2971,-25.8222
 L -59.311,-25.8271 L -59.319,-25.8298 L -59.3253,-25.8313 L -59.3315,-25.836 L -59.3395,-25.84 L -59.4078,-25.8726
 L -59.4213,-25.8793 L -59.4895,-25.9197 L -59.5034,-25.9278 L -59.511,-25.9322 L -59.5173,-25.9353 L -59.584,-25.9835
 L -59.5974,-25.9929 L -59.605,-25.9987 L -59.6113,-26.0033 L -59.6764,-26.0577 L -59.6894,-26.0684 L -59.697,-26.0747
 L -59.7033,-26.0793 L -59.781,-26.1515 L -59.7814,-26.152 L -59.7886,-26.1591 L -59.7933,-26.1653 L -59.7995,-26.17
 L -59.8066,-26.1776 L -59.8687,-26.2459 L -59.8813,-26.2593 L -59.8934,-26.2741 L -59.9539,-26.3486 L -59.9606,-26.3576
 L -59.9653,-26.3653 L -59.9715,-26.3716 L -59.9786,-26.3805 L -59.9903,-26.3966 L -60.0493,-26.4773 L -60.0605,-26.4944
 L -60.1163,-26.5797 L -60.1226,-26.5896 L -60.1273,-26.5973 L -60.1313,-26.6045 L -60.138,-26.6157 L -60.1799,-26.6871
 L -60.1923,-26.7088 L -60.1986,-26.7196 L -60.2033,-26.7273 L -60.2136,-26.7466 L -60.2648,-26.8444 L -60.2753,-26.8653
 L -60.2799,-26.8747 L -60.2857,-26.8868 L -60.2956,-26.9069 L -60.3453,-27.0093 L -60.3547,-27.0309 L -60.3997,-27.1395
 L -60.4046,-27.152 L -60.4093,-27.1613 L -60.4178,-27.1837 L -60.4612,-27.2955 L -60.4666,-27.3089 L -60.4713,-27.3213
 L -60.4744,-27.3307 L -60.4762,-27.336 L -60.4788,-27.3437 L -60.4869,-27.367 L -60.5273,-27.4833 L -60.5344,-27.5075
 L -60.5717,-27.6286 L -60.5762,-27.6429 L -60.5793,-27.6553 L -60.586,-27.68 L -60.6201,-27.8041 L -60.6224,-27.8118
 L -60.6242,-27.8185 L -60.6273,-27.8293 L -60.6288,-27.8402 L -60.6319,-27.855 L -60.6382,-27.8805 L -60.6693,-28.0093
 L -60.6751,-28.0353 L -60.703,-28.1672 L -60.7057,-28.1825 L -60.7073,-28.1933 L -60.7122,-28.2202 L -60.7355,-28.3552
 L -60.7382,-28.3705 L -60.7413,-28.3813 L -60.7453,-28.4087 L -60.7655,-28.5452 L -60.7677,-28.5609 L -60.7693,-28.5733
 L -60.7708,-28.5858 L -60.7726,-28.6014 L -60.7881,-28.7396 L -60.7913,-28.7673 L -60.7939,-28.7951 L -60.8079,-28.9348
 L -60.8097,-28.9509 L -60.8113,-28.9633 L -60.8128,-28.9758 L -60.8137,-28.9923 L -60.8155,-29.0201 L -60.8233,-29.1613
 L -60.8246,-29.1891 L -60.8308,-29.3304 L -60.8313,-29.3474 L -60.8313,-29.3613 L -60.8317,-29.3891 L -60.8348,-29.5303
 z
M -11.5093,25.1523 L -11.5093,25.1327 L -11.5084,25.1161 L -11.5037,25.0323 L -11.5033,25.0224 L -11.5033,25.0147
 L -11.5017,25.0085 L -11.5008,24.999 L -11.4986,24.9829 L -11.4893,24.9007 L -11.4866,24.885 L -11.4726,24.8074
 L -11.4708,24.7984 L -11.4693,24.7907 L -11.4652,24.7759 L -11.4466,24.7014 L -11.4444,24.6924 L -11.4413,24.6847
 L -11.4368,24.6703 L -11.4135,24.5989 L -11.4108,24.5909 L -11.4093,24.5847 L -11.4062,24.5785 L -11.4026,24.5704
 L -11.3967,24.5569 L -11.3673,24.4887 L -11.3605,24.4757 L -11.3264,24.4105 L -11.3224,24.4033 L -11.3193,24.3987
 L -11.3161,24.3925 L -11.3117,24.3853 L -11.3045,24.3741 L -11.3041,24.3732 L -11.2653,24.3127 L -11.2563,24.3015
 L -11.2128,24.244 L -11.2106,24.2405 L -11.2079,24.2373 L -11.2033,24.2327 L -11.1938,24.2224 L -11.1457,24.1696
 L -11.1399,24.1633 L -11.1353,24.1587 L -11.1249,24.1492 L -11.0737,24.1011 L -11.0691,24.0965 L -11.0633,24.0907
 L -11.0586,24.0876 L -11.0519,24.0831 L -10.9945,24.0396 L -10.9833,24.0307 L -10.9712,24.023 L -10.9106,23.9842
 L -10.9044,23.9811 L -10.8973,23.9767 L -10.8847,23.9699 L -10.8211,23.9358 L -10.8149,23.9327 L -10.8073,23.9287
 L -10.7934,23.9228 L -10.7251,23.8933 L -10.7189,23.8902 L -10.7113,23.8867 L -10.7035,23.8851 L -10.6954,23.8824
 L -10.624,23.8576 L -10.6093,23.8527 L -10.5945,23.8491 L -10.52,23.8289 L -10.5122,23.8289 L -10.5033,23.8267
 L -10.488,23.8235 L -10.4104,23.808 L -10.4027,23.8065 L -10.3933,23.8047 L -10.3776,23.8029 L -10.2969,23.7951
 L -10.2907,23.7936 L -10.2813,23.7927 L -10.2642,23.7918 L -10.1804,23.7871 L -10.1711,23.7871 L -10.1613,23.7867
 L -10.1442,23.7867 L -10.0573,23.7882 L -10.0511,23.7882 L -10.0413,23.7887 L -10.0233,23.7896 L -9.93332,23.7942
 L -9.92556,23.7958 L -9.91525,23.7967 L -9.89733,23.7985 L -9.80732,23.8093 L -9.79956,23.8093 L -9.78925,23.8107
 L -9.77043,23.8142 L -9.67732,23.8313 L -9.66956,23.8329 L -9.65925,23.8347 L -9.64043,23.8391 L -9.54577,23.8593
 L -9.53646,23.8624 L -9.52525,23.8647 L -9.50643,23.8696 L -9.41177,23.8944 L -9.40246,23.8975 L -9.39125,23.9007
 L -9.38349,23.9038 L -9.37229,23.9073 L -9.27607,23.9384 L -9.25725,23.9447 L -9.24794,23.9478 L -9.23674,23.9518
 L -9.14052,23.9875 L -9.12125,23.9947 L -9.11194,23.9993 L -9.10074,24.0042 L -9.00452,24.0446 L -8.98525,24.0527
 L -8.96554,24.0612 L -8.86777,24.1062 L -8.85846,24.1093 L -8.84725,24.1147 L -8.8069,24.1348 L -8.78764,24.1447
 L -8.73022,24.1742 L -8.7209,24.1788 L -8.70925,24.1847 L -8.68998,24.1954 L -8.59377,24.2482 L -8.58446,24.2544
 L -8.57325,24.2607 L -8.56549,24.2653 L -8.55429,24.272 L -8.45808,24.331 L -8.43925,24.3427 L -8.41998,24.3548
 L -8.32377,24.4153 L -8.31601,24.423 L -8.30525,24.4307 L -8.29594,24.4353 L -8.28474,24.4429 L -8.19007,24.5097
 L -8.17125,24.5227 L -8.15288,24.5361 L -8.05977,24.6044 L -8.05201,24.6121 L -8.04125,24.6207 L -8.02288,24.635
 L -7.92977,24.7079 L -7.92201,24.7141 L -7.91125,24.7227 L -7.89378,24.7379 L -7.80532,24.8139 L -7.79756,24.8217
 L -7.78725,24.8307 L -7.77794,24.8369 L -7.76764,24.8458 L -7.68073,24.925 L -7.66325,24.9407 L -7.64622,24.9572
 L -7.56242,25.0395 L -7.55311,25.0472 L -7.54325,25.0567 L -7.53549,25.066 L -7.52608,25.0758 L -7.44539,25.1596
 L -7.43508,25.1704 L -7.42925,25.1767 L -7.35011,25.2651 L -7.34294,25.2727 L -7.33397,25.2826 L -7.32501,25.2929
 L -7.31725,25.3007 L -7.30202,25.3181 L -7.22598,25.4066 L -7.21701,25.4169 L -7.20925,25.4247 L -7.13631,25.5162
 L -7.12198,25.5341 L -7.11346,25.5453 L -7.10725,25.5547 L -7.03742,25.6462 L -7.02353,25.6641 L -7.01546,25.6753
 L -7.00925,25.6847 L -6.94252,25.7793 L -6.92953,25.7981 L -6.92191,25.8089 L -6.91725,25.8167 L -6.91104,25.826
 L -6.90701,25.8318 L -6.90388,25.8372 L -6.8418,25.9318 L -6.82925,25.9507 L -6.77183,26.0484 L -6.76018,26.0677
 L -6.75346,26.0789 L -6.74725,26.0867 L -6.69294,26.1844 L -6.68218,26.2037 L -6.67591,26.2149 L -6.67125,26.2227
 L -6.6666,26.232 L -6.66077,26.2432 L -6.61111,26.3409 L -6.60125,26.3607 L -6.5578,26.4584 L -6.54884,26.4777
 L -6.54391,26.4893 L -6.53925,26.4987 L -6.53615,26.5064 L -6.53167,26.5172 L -6.48977,26.6149 L -6.48125,26.6347
 L -6.44556,26.7309 L -6.44377,26.7354 L -6.43839,26.7501 L -6.43436,26.7613 L -6.43125,26.7707 L -6.40022,26.8669
 L -6.39618,26.8794 L -6.39439,26.8857 L -6.39081,26.8969 L -6.38925,26.9047 L -6.36287,27.0009 L -6.35749,27.0201
 L -6.35436,27.0309 L -6.35125,27.0387 L -6.3497,27.0464 L -6.34746,27.0572 L -6.32574,27.1518 L -6.32125,27.1707
 L -6.30574,27.2638 L -6.3026,27.2821 L -6.3026,27.2826 L -6.30036,27.2933 L -6.29725,27.3027 L -6.28794,27.3927
 L -6.28615,27.4106 L -6.2848,27.4209 L -6.2817,27.4364 L -6.28125,27.4467 L -6.2766,27.5352 L -6.27525,27.5527
 L -6.2737,27.6396 L -6.27325,27.657 L -6.27325,27.6824 L -6.2737,27.6923 L -6.27836,27.7776 L -6.27925,27.7947
 L -6.28856,27.8738 L -6.29036,27.8895 L -6.29125,27.8989 L -6.29125,27.9067 L -6.29281,27.9144 L -6.2946,27.9238
 L -6.31011,28.0014 L -6.31325,28.0167 L -6.33188,28.0927 L -6.33546,28.1079 L -6.33815,28.1165 L -6.34125,28.1227
 L -6.34281,28.1289 L -6.34505,28.1374 L -6.36832,28.2103 L -6.37325,28.2247 L -6.40274,28.2929 L -6.40857,28.3064
 L -6.41081,28.3113 L -6.41215,28.3145 L -6.41525,28.3207 L -6.41836,28.3269 L -6.42194,28.3345 L -6.45608,28.3981
 L -6.45698,28.3995 L -6.46325,28.4107 L -6.47087,28.4228 L -6.50967,28.4833 L -6.51415,28.4905 L -6.51725,28.4967
 L -6.56071,28.5525 L -6.56967,28.5637 L -6.57415,28.5705 L -6.57725,28.5767 L -6.62691,28.6279 L -6.63677,28.6382
 L -6.6426,28.644 L -6.64725,28.6487 L -6.65308,28.6545 L -6.65773,28.6591 L -6.70895,28.7072 L -6.71925,28.7167
 L -6.73046,28.7252 L -6.78788,28.7686 L -6.7946,28.7736 L -6.79925,28.7767 L -6.81135,28.7847 L -6.87188,28.8251
 L -6.87905,28.8296 L -6.88525,28.8327 L -6.8978,28.8394 L -6.96143,28.8735 L -6.96905,28.8771 L -6.97525,28.8802
 L -6.97525,28.8807 L -6.98915,28.8865 L -7.05743,28.9144 L -7.06504,28.918 L -7.07125,28.9227 L -7.08559,28.9276
 L -7.15698,28.9509 L -7.16505,28.9531 L -7.17125,28.9547 L -7.18649,28.9587 L -7.26253,28.9789 L -7.27149,28.9811
 L -7.27925,28.9827 L -7.29449,28.9858 L -7.37208,29.0013 L -7.38105,29.0027 L -7.38725,29.0027 L -7.40339,29.0045
 L -7.48563,29.0138 L -7.49505,29.0151 L -7.50126,29.0167 L -7.51828,29.0171 L -7.54622,29.0187 L -7.60208,29.0202
 L -7.61149,29.0211 L -7.61926,29.0227 L -7.63673,29.0222 L -7.72519,29.0207 L -7.74125,29.0207 L -7.75156,29.0202
 L -7.76087,29.0187 L -7.84933,29.014 L -7.86725,29.0127 L -7.88518,29.0104 L -7.97519,28.9996 L -7.98549,28.9982
 L -7.99325,28.9967 L -8.00401,28.9949 L -8.01332,28.9933 L -8.10488,28.9778 L -8.11563,28.976 L -8.12325,28.9747
 L -8.14207,28.9702 L -8.23674,28.9485 L -8.24794,28.9462 L -8.25725,28.9447 L -8.27607,28.9397 L -8.37074,28.9133
 L -8.38194,28.9098 L -8.39125,28.9067 L -8.40201,28.9031 L -8.40977,28.9015 L -8.50598,28.8689 L -8.52525,28.8627
 L -8.54452,28.8559 L -8.64229,28.8218 L -8.65349,28.8178 L -8.66125,28.8147 L -8.68052,28.8061 L -8.77674,28.7642
 L -8.78794,28.7598 L -8.79725,28.7567 L -8.8089,28.7513 L -8.81822,28.7466 L -8.91598,28.7016 L -8.93525,28.6927
 L -8.94915,28.6859 L -9.04691,28.6378 L -9.05229,28.6347 L -9.06349,28.6293 L -9.07125,28.6247 L -9.09052,28.6139
 L -9.18829,28.5596 L -9.19994,28.5533 L -9.20925,28.5487 L -9.22807,28.537 L -9.32429,28.4796 L -9.33549,28.4729
 L -9.34325,28.4667 L -9.36252,28.4541 L -9.45874,28.392 L -9.46949,28.3849 L -9.47725,28.3787 L -9.48846,28.371
 L -9.49777,28.3664 L -9.59243,28.2997 L -9.61125,28.2867 L -9.62963,28.2728 L -9.72274,28.2029 L -9.73349,28.1949
 L -9.74125,28.1887 L -9.75963,28.1739 L -9.76273,28.1723 L -9.85119,28.1009 L -9.86194,28.0929 L -9.87125,28.0867
 L -9.88873,28.0714 L -9.97719,27.9954 L -9.98749,27.9864 L -9.99525,27.9787 L -10.0127,27.9625 L -10.0996,27.8818
 L -10.1099,27.8729 L -10.1193,27.8667 L -10.1358,27.8505 L -10.2196,27.7683 L -10.2295,27.7584 L -10.2373,27.7507
 L -10.2538,27.7336 L -10.3376,27.6498 L -10.347,27.6404 L -10.3533,27.6327 L -10.3694,27.6152 L -10.4485,27.5267
 L -10.4575,27.5164 L -10.4653,27.5087 L -10.4805,27.4912 L -10.5565,27.4027 L -10.565,27.3924 L -10.5713,27.3847
 L -10.5753,27.3797 L -10.5807,27.373 L -10.586,27.3663 L -10.6605,27.2732 L -10.669,27.2624 L -10.6753,27.2547
 L -10.6815,27.2469 L -10.6895,27.2361 L -10.7034,27.2178 L -10.7733,27.1247 L -10.7862,27.1058 L -10.8514,27.0112
 L -10.859,27 L -10.8653,26.9907 L -10.8778,26.9718 L -10.9399,26.8772 L -10.9439,26.8705 L -10.947,26.866
 L -10.9533,26.8567 L -10.9645,26.8378 L -11.0219,26.7416 L -11.029,26.73 L -11.0353,26.7207 L -11.046,26.7014
 L -11.1003,26.6052 L -11.1066,26.594 L -11.1113,26.5847 L -11.1159,26.5769 L -11.1217,26.5657 L -11.1714,26.4679
 L -11.1813,26.4487 L -11.1898,26.4294 L -11.2332,26.3316 L -11.2386,26.32 L -11.2433,26.3107 L -11.2464,26.3013
 L -11.2508,26.2901 L -11.2594,26.2709 L -11.3013,26.1747 L -11.3084,26.1554 L -11.3441,26.0592 L -11.3481,26.048
 L -11.3513,26.0387 L -11.3571,26.0194 L -11.3881,25.9232 L -11.3886,25.9223 L -11.3917,25.912 L -11.3933,25.9027
 L -11.3986,25.8838 L -11.425,25.7892 L -11.4281,25.7784 L -11.4313,25.7707 L -11.4328,25.7613 L -11.435,25.7501
 L -11.4395,25.7313 L -11.4613,25.6367 L -11.4626,25.6272 L -11.4644,25.6183 L -11.4799,25.5267 L -11.4822,25.516
 L -11.4853,25.5067 L -11.487,25.4887 L -11.4964,25.3987 L -11.4977,25.3884 L -11.4993,25.3807 L -11.5008,25.3729
 L -11.5013,25.3621 L -11.5022,25.3478 L -11.5026,25.3447 L -11.5073,25.2547 L -11.5077,25.2376 z
M 6.27074,27.6824 L 6.27074,27.6747 L 6.27119,27.6576 L 6.27275,27.5707 L 6.27275,27.5527 L 6.27409,27.5352
 L 6.27875,27.4467 L 6.2792,27.4364 L 6.28075,27.4287 L 6.28164,27.4233 L 6.28299,27.4107 L 6.29385,27.3207
 L 6.29519,27.3104 L 6.29675,27.3027 L 6.29988,27.2838 L 6.3154,27.1907 L 6.3172,27.18 L 6.31875,27.1707
 L 6.32323,27.1518 L 6.34496,27.0572 L 6.3472,27.0464 L 6.34875,27.0387 L 6.35368,27.0198 L 6.38006,26.9252
 L 6.38364,26.914 L 6.38675,26.9047 L 6.3883,26.8969 L 6.39189,26.8857 L 6.39771,26.8669 L 6.42875,26.7707
 L 6.43185,26.7613 L 6.43588,26.7501 L 6.44305,26.7309 L 6.47874,26.6347 L 6.4834,26.6253 L 6.48833,26.6141
 L 6.4964,26.5949 L 6.53675,26.4987 L 6.54571,26.4789 L 6.59072,26.3796 L 6.59296,26.3751 L 6.59565,26.3684
 L 6.59875,26.3607 L 6.60905,26.3409 L 6.65872,26.2432 L 6.66409,26.232 L 6.66875,26.2227 L 6.6795,26.2034
 L 6.73382,26.1072 L 6.74009,26.096 L 6.74475,26.0867 L 6.75096,26.0789 L 6.75812,26.0677 L 6.76933,26.0484
 L 6.82674,25.9507 L 6.83929,25.9318 L 6.90137,25.8372 L 6.9054,25.8313 L 6.90854,25.826 L 6.91475,25.8167
 L 6.9194,25.8089 L 6.92702,25.7981 L 6.94001,25.7793 L 7.00674,25.6847 L 7.02064,25.6663 L 7.09047,25.5732
 L 7.09854,25.5624 L 7.10474,25.5547 L 7.11371,25.543 L 7.11953,25.5363 L 7.19247,25.4432 L 7.20054,25.4324
 L 7.20675,25.4247 L 7.22199,25.4067 L 7.29803,25.3183 L 7.30579,25.3105 L 7.31475,25.3007 L 7.32251,25.2929
 L 7.33147,25.2826 L 7.3476,25.2651 L 7.42675,25.1767 L 7.44288,25.1596 L 7.52358,25.0758 L 7.53344,25.066
 L 7.54275,25.0567 L 7.55051,25.0489 L 7.55992,25.0395 L 7.57695,25.0229 L 7.66075,24.9407 L 7.67823,24.925
 L 7.76668,24.8458 L 7.77699,24.8369 L 7.78474,24.8307 L 7.80222,24.8154 L 7.89068,24.7378 L 7.90099,24.7289
 L 7.90874,24.7227 L 7.91278,24.7195 L 7.92712,24.7083 L 8.02023,24.6354 L 8.03099,24.6269 L 8.03875,24.6207
 L 8.05712,24.6068 L 8.14868,24.5369 L 8.15943,24.5289 L 8.16875,24.5227 L 8.18757,24.5097 L 8.28223,24.4429
 L 8.29344,24.4353 L 8.30275,24.4307 L 8.3105,24.4229 L 8.32126,24.4153 L 8.34053,24.4032 L 8.43674,24.3427
 L 8.45557,24.331 L 8.55178,24.272 L 8.56343,24.2653 L 8.57275,24.2607 L 8.59202,24.2499 L 8.68823,24.1956
 L 8.69944,24.1893 L 8.70875,24.1847 L 8.71651,24.18 L 8.72771,24.1742 L 8.78513,24.1447 L 8.8044,24.1348
 L 8.84475,24.1147 L 8.86402,24.1057 L 8.96179,24.0607 L 8.97344,24.0558 L 8.98275,24.0527 L 8.99206,24.0496
 L 9.00326,24.0446 L 9.02253,24.0366 L 9.11874,23.9947 L 9.13801,23.9875 L 9.23423,23.9518 L 9.24543,23.9478
 L 9.25475,23.9447 L 9.27357,23.9384 L 9.36978,23.9073 L 9.38099,23.9038 L 9.38875,23.9007 L 9.40802,23.8953
 L 9.50423,23.8689 L 9.51499,23.8662 L 9.52275,23.8647 L 9.53206,23.8616 L 9.54326,23.8593 L 9.56208,23.8548
 L 9.65675,23.8347 L 9.66571,23.8329 L 9.67512,23.8315 L 9.76668,23.816 L 9.77744,23.8138 L 9.78675,23.8107
 L 9.80467,23.8089 L 9.89468,23.798 L 9.90499,23.7967 L 9.91275,23.7967 L 9.92051,23.7951 L 9.93126,23.7942
 L 9.94874,23.7933 L 10.0387,23.7887 L 10.0558,23.7882 L 10.1411,23.7867 L 10.1685,23.7867 L 10.1779,23.7871
 L 10.1949,23.788 L 10.2787,23.7927 L 10.2944,23.7945 L 10.3751,23.8038 L 10.385,23.8047 L 10.3927,23.8047
 L 10.399,23.8062 L 10.4079,23.808 L 10.4236,23.8111 L 10.5027,23.8267 L 10.5175,23.8302 L 10.592,23.8489
 L 10.601,23.8511 L 10.6087,23.8527 L 10.615,23.8542 L 10.623,23.8569 L 10.6374,23.8618 L 10.7087,23.8867
 L 10.7226,23.8925 L 10.7909,23.922 L 10.7985,23.9256 L 10.8047,23.9287 L 10.811,23.9318 L 10.8186,23.9358
 L 10.8311,23.9425 L 10.8947,23.9767 L 10.9068,23.9843 L 10.9689,24.0231 L 10.9761,24.0276 L 10.9808,24.0307
 L 10.992,24.0396 L 11.0494,24.0831 L 11.0561,24.0876 L 11.0607,24.0907 L 11.0688,24.0983 L 11.0711,24.1005
 L 11.1223,24.1486 L 11.1285,24.154 L 11.1348,24.1587 L 11.1379,24.1633 L 11.1432,24.1696 L 11.1929,24.2224
 L 11.2028,24.2327 L 11.2446,24.2901 L 11.2527,24.3013 L 11.2581,24.308 L 11.2627,24.3127 L 11.3015,24.3732
 L 11.3092,24.3853 L 11.3136,24.3925 L 11.3167,24.3987 L 11.3509,24.4623 L 11.3576,24.4748 L 11.3616,24.4825
 L 11.3647,24.4887 L 11.3942,24.5569 L 11.4001,24.5704 L 11.4036,24.5785 L 11.4067,24.5847 L 11.4316,24.656
 L 11.4365,24.6699 L 11.4388,24.6785 L 11.4388,24.6847 L 11.4605,24.7607 L 11.4645,24.7759 L 11.4668,24.7845
 L 11.4668,24.7907 L 11.4823,24.8683 L 11.4854,24.8839 L 11.4872,24.8929 L 11.4887,24.9007 L 11.4965,24.9829
 L 11.4983,24.999 L 11.4992,25.0085 L 11.5007,25.0147 L 11.5054,25.0985 L 11.5063,25.1155 L 11.5067,25.1249
 L 11.5067,25.1327 L 11.5052,25.2196 L 11.5047,25.237 L 11.5047,25.2624 L 11.5043,25.2727 L 11.4981,25.3627
 L 11.4967,25.3807 L 11.4859,25.4707 L 11.4841,25.4886 L 11.4827,25.4989 L 11.4827,25.5067 L 11.4796,25.516
 L 11.4774,25.5267 L 11.4619,25.6183 L 11.4587,25.6367 L 11.437,25.7313 L 11.4325,25.7501 L 11.4303,25.7613
 L 11.4287,25.7707 L 11.4039,25.8653 L 11.399,25.8841 L 11.3954,25.8949 L 11.3907,25.9027 L 11.3892,25.912
 L 11.3856,25.9232 L 11.3546,26.0194 L 11.3487,26.0387 L 11.3131,26.1349 L 11.3059,26.1541 L 11.3036,26.16
 L 11.3019,26.1653 L 11.2987,26.1747 L 11.2568,26.2709 L 11.2483,26.2901 L 11.2439,26.3013 L 11.2407,26.3107
 L 11.2361,26.32 L 11.2312,26.3316 L 11.1877,26.4294 L 11.1787,26.4487 L 11.1765,26.4531 L 11.1268,26.5509
 L 11.1192,26.5657 L 11.1134,26.5769 L 11.1087,26.5847 L 11.0544,26.6824 L 11.0437,26.7017 L 11.0374,26.7129
 L 11.0327,26.7207 L 10.9753,26.8169 L 10.9637,26.8361 L 10.957,26.8473 L 10.9507,26.8567 L 10.8887,26.9529
 L 10.8761,26.9717 L 10.869,26.9829 L 10.8627,26.9907 L 10.8581,27 L 10.8505,27.0112 L 10.7837,27.1058
 L 10.7757,27.1175 L 10.7707,27.1247 L 10.7009,27.2178 L 10.6875,27.2361 L 10.679,27.2469 L 10.6727,27.2547
 L 10.5998,27.3462 L 10.5994,27.3476 L 10.5855,27.3641 L 10.577,27.3753 L 10.5707,27.3847 L 10.4947,27.4731
 L 10.4795,27.4906 L 10.4705,27.5009 L 10.4627,27.5087 L 10.3836,27.5956 L 10.3679,27.613 L 10.3585,27.6233
 L 10.3507,27.6327 L 10.2701,27.7165 L 10.2539,27.7335 L 10.2441,27.7429 L 10.2347,27.7507 L 10.1509,27.8345
 L 10.1344,27.851 L 10.1245,27.8605 L 10.1167,27.8667 L 10.0283,27.9458 L 10.0108,27.9615 L 10.0005,27.9709
 L 9.99274,27.9787 L 9.90429,28.0547 L 9.88681,28.0699 L 9.8765,28.0789 L 9.86874,28.0867 L 9.77719,28.1596
 L 9.75881,28.1739 L 9.74806,28.1825 L 9.73875,28.1887 L 9.73099,28.1949 L 9.72023,28.2029 L 9.62712,28.2728
 L 9.60875,28.2867 L 9.51408,28.3534 L 9.49526,28.3664 L 9.48451,28.374 L 9.47675,28.3787 L 9.38053,28.4407
 L 9.36126,28.4533 L 9.35006,28.4605 L 9.34074,28.4667 L 9.24453,28.5241 L 9.22571,28.5353 L 9.21451,28.5425
 L 9.20675,28.5487 L 9.10898,28.6014 L 9.08971,28.6122 L 9.07851,28.6185 L 9.07075,28.6247 L 9.06144,28.6293
 L 9.04978,28.6347 L 8.95202,28.6828 L 8.94395,28.6873 L 8.93275,28.6927 L 8.83498,28.7377 L 8.81571,28.7466
 L 8.80406,28.752 L 8.79475,28.7567 L 8.78699,28.7598 L 8.77623,28.7642 L 8.67846,28.8061 L 8.65874,28.8147
 L 8.56253,28.8488 L 8.54326,28.856 L 8.53206,28.8596 L 8.52275,28.8627 L 8.42653,28.8952 L 8.40771,28.9015
 L 8.39651,28.9051 L 8.38875,28.9067 L 8.29253,28.933 L 8.27326,28.9384 L 8.27237,28.9389 L 8.26251,28.9416
 L 8.25475,28.9447 L 8.24543,28.9462 L 8.23468,28.9485 L 8.14002,28.9702 L 8.12075,28.9747 L 8.02919,28.9902
 L 8.01081,28.9933 L 8.00006,28.9951 L 7.99075,28.9967 L 7.90074,29.0075 L 7.88282,29.0098 L 7.87251,29.0111
 L 7.85699,29.0142 L 7.84623,29.0147 L 7.75778,29.0193 L 7.74075,29.0207 L 7.65384,29.0222 L 7.63637,29.0222
 L 7.6265,29.0227 L 7.61874,29.0227 L 7.55357,29.0196 L 7.53654,29.0187 L 7.51792,29.0171 L 7.50806,29.0167
 L 7.49875,29.0167 L 7.49254,29.0151 L 7.48313,29.0138 L 7.40243,29.0045 L 7.38675,29.0027 L 7.3076,28.9887
 L 7.29147,28.986 L 7.28295,28.9842 L 7.27675,28.9827 L 7.20071,28.964 L 7.18547,28.96 L 7.17696,28.9578
 L 7.17075,28.9547 L 7.09936,28.9314 L 7.08457,28.9265 L 7.07651,28.9242 L 7.06875,28.9227 L 7.06254,28.918
 L 7.05492,28.9144 L 6.98664,28.8865 L 6.97275,28.8807 L 6.90757,28.8465 L 6.89502,28.8398 L 6.8874,28.8358
 L 6.88274,28.8327 L 6.87654,28.8296 L 6.86937,28.8251 L 6.80884,28.7847 L 6.79675,28.7767 L 6.74088,28.7348
 L 6.72968,28.7262 L 6.72296,28.7213 L 6.71675,28.7167 L 6.66554,28.6686 L 6.65523,28.6591 L 6.6494,28.6533
 L 6.64474,28.6487 L 6.63489,28.6384 L 6.58523,28.5871 L 6.57985,28.5813 L 6.57674,28.5767 L 6.57209,28.5705
 L 6.56716,28.5637 L 6.55999,28.5543 L 6.55865,28.5525 L 6.51675,28.4967 L 6.50868,28.4846 L 6.46833,28.424
 L 6.46385,28.4169 L 6.46075,28.4107 L 6.45403,28.3981 L 6.41988,28.3345 L 6.41585,28.3269 L 6.41275,28.3207
 L 6.40692,28.3068 L 6.37744,28.2369 L 6.37385,28.2293 L 6.37075,28.2247 L 6.36919,28.2169 L 6.3665,28.2084
 L 6.36202,28.194 L 6.33875,28.1227 L 6.33471,28.1079 L 6.31454,28.0334 L 6.31319,28.0289 L 6.3123,28.0244
 L 6.31075,28.0167 L 6.30761,28.0014 L 6.29209,27.9238 L 6.29075,27.9144 L 6.29075,27.9067 L 6.28851,27.8905
 L 6.2792,27.8098 L 6.2783,27.8009 L 6.27675,27.7947 L 6.2763,27.7776 L 6.27164,27.6923 z
M 57.2767,-29.5303 L 57.2767,-29.5876 L 57.2783,-29.7304 L 57.2787,-29.7469 L 57.2787,-29.7718 L 57.2792,-29.7879
 L 57.2801,-29.8107 L 57.2805,-29.8161 L 57.2868,-29.9573 L 57.2885,-29.9856 L 57.2963,-30.1252 L 57.2963,-30.1261
 L 57.2972,-30.1414 L 57.2988,-30.1553 L 57.3014,-30.1831 L 57.3154,-30.3228 L 57.3172,-30.3389 L 57.3187,-30.3513
 L 57.3219,-30.3787 L 57.3374,-30.5168 L 57.3392,-30.5329 L 57.3423,-30.5578 L 57.3445,-30.5734 L 57.3486,-30.6008
 L 57.3688,-30.7373 L 57.3732,-30.7638 L 57.3981,-30.8972 L 57.4012,-30.9129 L 57.4027,-30.9253 L 57.4081,-30.9513
 L 57.4361,-31.0817 L 57.4392,-31.0969 L 57.4408,-31.1093 L 57.4416,-31.1134 L 57.4466,-31.1349 L 57.4776,-31.2621
 L 57.4812,-31.2769 L 57.4827,-31.2893 L 57.4895,-31.314 L 57.5236,-31.4381 L 57.5276,-31.4529 L 57.5307,-31.4653
 L 57.5379,-31.4891 L 57.5752,-31.6086 L 57.5796,-31.6225 L 57.5827,-31.6333 L 57.6014,-31.6892 L 57.6094,-31.7125
 L 57.6312,-31.7746 L 57.6356,-31.7885 L 57.6387,-31.7993 L 57.6477,-31.8213 L 57.6927,-31.933 L 57.6976,-31.9465
 L 57.7008,-31.9573 L 57.7097,-31.9789 L 57.7563,-32.0859 L 57.7616,-32.0985 L 57.7647,-32.1093 L 57.7746,-32.1295
 L 57.8227,-32.2319 L 57.8281,-32.244 L 57.8327,-32.2533 L 57.8435,-32.2731 L 57.8963,-32.3708 L 57.9021,-32.3816
 L 57.9068,-32.3893 L 57.9114,-32.3987 L 57.9177,-32.4094 L 57.9284,-32.4278 L 57.9827,-32.5193 L 57.9874,-32.5271
 L 57.9937,-32.5374 L 58,-32.5464 L 58.0049,-32.5544 L 58.0608,-32.6413 L 58.067,-32.6491 L 58.0737,-32.6585
 L 58.0853,-32.6746 L 58.1428,-32.7553 L 58.1549,-32.7701 L 58.2154,-32.8431 L 58.2225,-32.8516 L 58.2288,-32.8593
 L 58.2413,-32.8723 L 58.3034,-32.9391 L 58.3105,-32.9471 L 58.3293,-32.9659 L 58.3929,-33.0264 L 58.4001,-33.0331
 L 58.4047,-33.0393 L 58.4125,-33.0455 L 58.4206,-33.0523 L 58.4336,-33.063 L 58.4987,-33.1173 L 58.5117,-33.1263
 L 58.5785,-33.1729 L 58.5865,-33.1787 L 58.5928,-33.1833 L 58.599,-33.1864 L 58.6066,-33.1909 L 58.6205,-33.199
 L 58.6888,-33.2393 L 58.7022,-33.2461 L 58.7705,-33.2787 L 58.7785,-33.2822 L 58.7848,-33.2853 L 58.7986,-33.2907
 L 58.8685,-33.3171 L 58.8765,-33.3202 L 58.8828,-33.3233 L 58.8966,-33.3269 L 58.9665,-33.344 L 58.9745,-33.3462
 L 58.9808,-33.3493 L 58.9885,-33.3493 L 58.997,-33.3507 L 59.0109,-33.3525 L 59.0807,-33.3633 L 59.0946,-33.3642
 L 59.166,-33.3689 L 59.1745,-33.3693 L 59.187,-33.3693 L 59.1955,-33.3689 L 59.2094,-33.368 L 59.2807,-33.3633
 L 59.2946,-33.3616 L 59.3645,-33.3507 L 59.3716,-33.3493 L 59.3808,-33.3493 L 59.3946,-33.3453 L 59.4645,-33.3251
 L 59.4725,-33.3233 L 59.4788,-33.3233 L 59.4926,-33.318 L 59.5625,-33.2916 L 59.5705,-33.2884 L 59.5768,-33.2853
 L 59.5906,-33.2791 L 59.6605,-33.2465 L 59.6681,-33.2424 L 59.6728,-33.2393 L 59.6866,-33.2313 L 59.7549,-33.1909
 L 59.7625,-33.1864 L 59.7688,-33.1833 L 59.775,-33.1787 L 59.783,-33.1729 L 59.796,-33.1639 L 59.8627,-33.1173
 L 59.8757,-33.1066 L 59.9409,-33.0523 L 59.949,-33.0455 L 59.9567,-33.0393 L 59.9693,-33.0272 L 60.0329,-32.9667
 L 60.0401,-32.9596 L 60.0447,-32.9533 L 60.051,-32.9471 L 60.0581,-32.9391 L 60.1202,-32.8723 L 60.1328,-32.8593
 L 60.1948,-32.7849 L 60.2069,-32.7701 L 60.2141,-32.7616 L 60.2188,-32.7553 L 60.2234,-32.7476 L 60.2301,-32.7382
 L 60.2891,-32.6575 L 60.3008,-32.6413 L 60.3582,-32.5544 L 60.3694,-32.5374 L 60.3756,-32.5271 L 60.3788,-32.5193
 L 60.4331,-32.4278 L 60.4443,-32.4094 L 60.4501,-32.3987 L 60.4548,-32.3893 L 60.5075,-32.2931 L 60.5178,-32.2739
 L 60.5241,-32.2627 L 60.5287,-32.2533 L 60.5334,-32.244 L 60.5388,-32.2319 L 60.5869,-32.1295 L 60.5967,-32.1093
 L 60.6418,-32.0007 L 60.6512,-31.9792 L 60.6561,-31.9667 L 60.6608,-31.9573 L 60.7042,-31.8441 L 60.7127,-31.8216
 L 60.7181,-31.8087 L 60.7227,-31.7993 L 60.7259,-31.7885 L 60.7303,-31.7746 L 60.7707,-31.6566 L 60.7787,-31.6333
 L 60.816,-31.5123 L 60.8232,-31.4885 L 60.8276,-31.4747 L 60.8307,-31.4653 L 60.8339,-31.4529 L 60.8379,-31.4381
 L 60.872,-31.314 L 60.8788,-31.2893 L 60.9098,-31.1605 L 60.9156,-31.135 L 60.9192,-31.1202 L 60.9208,-31.1093
 L 60.9239,-31.0969 L 60.927,-31.0817 L 60.9534,-30.9513 L 60.9587,-30.9253 L 60.982,-30.7919 L 60.987,-30.765
 L 60.9896,-30.7498 L 60.9928,-30.7373 L 60.9943,-30.7249 L 60.9965,-30.7092 L 60.9996,-30.6937 L 61.0167,-30.5727
 L 61.0208,-30.5453 L 61.0378,-30.4072 L 61.041,-30.3799 L 61.0427,-30.3638 L 61.0427,-30.3513 L 61.0443,-30.3389
 L 61.0461,-30.3232 L 61.0461,-30.3228 L 61.0601,-30.1831 L 61.0628,-30.1553 L 61.0645,-30.1276 L 61.0739,-29.9863
 L 61.0752,-29.9698 L 61.0768,-29.9573 L 61.0814,-29.8161 L 61.0823,-29.7879 L 61.0827,-29.7718 L 61.0827,-29.7593
 L 61.0859,-29.6181 L 61.0863,-29.5899 L 61.0868,-29.5738 L 61.0868,-29.5469 L 61.0863,-29.5303 L 61.0832,-29.3891
 L 61.0827,-29.3613 L 61.0781,-29.2186 L 61.0772,-29.1899 L 61.0768,-29.1773 L 61.0768,-29.1613 L 61.0674,-29.0201
 L 61.0652,-28.9923 L 61.0643,-28.9758 L 61.0628,-28.9633 L 61.0488,-28.8237 L 61.0461,-28.7959 L 61.0443,-28.7798
 L 61.0427,-28.7673 L 61.0272,-28.6292 L 61.0263,-28.6203 L 61.0241,-28.6014 L 61.0223,-28.5858 L 61.0208,-28.5733
 L 61.0006,-28.4368 L 60.9988,-28.4247 L 60.9965,-28.4099 L 60.9943,-28.3938 L 60.9928,-28.3813 L 60.9695,-28.2479
 L 60.965,-28.2214 L 60.9619,-28.2058 L 60.9587,-28.1933 L 60.9324,-28.063 L 60.927,-28.037 L 60.9239,-28.0218
 L 60.9208,-28.0093 L 60.8897,-27.8805 L 60.8839,-27.855 L 60.8803,-27.8402 L 60.8788,-27.8293 L 60.8446,-27.7052
 L 60.8379,-27.6805 L 60.8339,-27.6662 L 60.8307,-27.6553 L 60.7935,-27.5343 L 60.7863,-27.5101 L 60.7819,-27.4958
 L 60.7787,-27.4833 L 60.7741,-27.474 L 60.7692,-27.4606 L 60.7304,-27.3442 L 60.7227,-27.3213 L 60.6777,-27.2081
 L 60.6688,-27.1852 L 60.6639,-27.1722 L 60.6608,-27.1613 L 60.6561,-27.152 L 60.6512,-27.1395 L 60.6062,-27.0309
 L 60.5967,-27.0093 L 60.5486,-26.9069 L 60.5388,-26.8868 L 60.5334,-26.8747 L 60.5287,-26.8653 L 60.476,-26.7676
 L 60.4657,-26.7483 L 60.4594,-26.7367 L 60.4548,-26.7273 L 60.4501,-26.7196 L 60.4443,-26.7088 L 60.39,-26.6157
 L 60.3788,-26.5973 L 60.3229,-26.512 L 60.3121,-26.495 L 60.3054,-26.4851 L 60.3008,-26.4773 L 60.2945,-26.468
 L 60.2932,-26.4662 L 60.2829,-26.4519 L 60.2301,-26.3805 L 60.2234,-26.3716 L 60.2188,-26.3653 L 60.2141,-26.3576
 L 60.2069,-26.3486 L 60.1449,-26.2741 L 60.1328,-26.2593 L 60.1202,-26.2459 L 60.0581,-26.1776 L 60.051,-26.17
 L 60.0447,-26.1653 L 59.9827,-26.1033 L 59.9701,-26.0912 L 59.9656,-26.0862 L 59.963,-26.084 L 59.9567,-26.0793
 L 59.8916,-26.025 L 59.8786,-26.0143 L 59.8705,-26.008 L 59.8627,-26.0033 L 59.796,-25.9552 L 59.783,-25.9458
 L 59.775,-25.94 L 59.7688,-25.9353 L 59.7625,-25.9322 L 59.7549,-25.9278 L 59.6866,-25.8874 L 59.6728,-25.8793
 L 59.6045,-25.8468 L 59.583,-25.836 L 59.5768,-25.8313 L 59.5069,-25.8065 L 59.4935,-25.8016 L 59.485,-25.7989
 L 59.4788,-25.7973 L 59.4089,-25.7772 L 59.395,-25.7731 L 59.387,-25.7713 L 59.3808,-25.7713 L 59.3094,-25.7589
 L 59.295,-25.7567 L 59.287,-25.7553 L 59.2807,-25.7553 L 59.2094,-25.7507 L 59.1955,-25.7498 L 59.187,-25.7493
 L 59.1807,-25.7493 L 59.1094,-25.754 L 59.095,-25.7549 L 59.087,-25.7553 L 59.0807,-25.7553 L 59.0109,-25.7662
 L 58.997,-25.7684 L 58.9885,-25.7698 L 58.9808,-25.7713 L 58.9109,-25.7884 L 58.897,-25.792 L 58.889,-25.7942
 L 58.8828,-25.7973 L 58.8129,-25.8222 L 58.799,-25.8271 L 58.791,-25.8298 L 58.7848,-25.8313 L 58.7785,-25.836
 L 58.7705,-25.84 L 58.7022,-25.8726 L 58.6888,-25.8793 L 58.6205,-25.9197 L 58.6066,-25.9278 L 58.599,-25.9322
 L 58.5928,-25.9353 L 58.526,-25.9835 L 58.5126,-25.9929 L 58.505,-25.9987 L 58.4987,-26.0033 L 58.4336,-26.0577
 L 58.4206,-26.0684 L 58.4125,-26.0747 L 58.4047,-26.0793 L 58.3411,-26.1399 L 58.329,-26.152 L 58.3214,-26.1591
 L 58.3167,-26.1653 L 58.3105,-26.17 L 58.3034,-26.1776 L 58.2413,-26.2459 L 58.2288,-26.2593 L 58.2167,-26.2741
 L 58.1561,-26.3486 L 58.149,-26.3576 L 58.1428,-26.3653 L 58.1381,-26.3716 L 58.1314,-26.3805 L 58.1197,-26.3966
 L 58.0608,-26.4773 L 58.0495,-26.4944 L 57.9937,-26.5797 L 57.9874,-26.5896 L 57.9827,-26.5973 L 57.972,-26.6157
 L 57.9177,-26.7088 L 57.9114,-26.7196 L 57.9068,-26.7273 L 57.8964,-26.7466 L 57.8437,-26.8444 L 57.8374,-26.856
 L 57.8327,-26.8653 L 57.8281,-26.8747 L 57.8227,-26.8868 L 57.8129,-26.9069 L 57.7647,-27.0093 L 57.7558,-27.0309
 L 57.7108,-27.1395 L 57.7054,-27.152 L 57.7008,-27.1613 L 57.6922,-27.1837 L 57.6488,-27.297 L 57.6434,-27.3105
 L 57.6387,-27.3213 L 57.6356,-27.3307 L 57.6312,-27.3437 L 57.6231,-27.367 L 57.5827,-27.4833 L 57.5756,-27.5075
 L 57.5383,-27.6286 L 57.5339,-27.6429 L 57.5307,-27.6553 L 57.524,-27.68 L 57.4899,-27.8041 L 57.4859,-27.8185
 L 57.4827,-27.8293 L 57.4812,-27.8402 L 57.4776,-27.855 L 57.4718,-27.8805 L 57.4408,-28.0093 L 57.439,-28.0192
 L 57.4354,-28.0353 L 57.4074,-28.1672 L 57.4043,-28.1825 L 57.4027,-28.1933 L 57.3978,-28.2202 L 57.3745,-28.3552
 L 57.3727,-28.3669 L 57.3719,-28.3705 L 57.3688,-28.3813 L 57.3647,-28.4087 L 57.3445,-28.5452 L 57.3423,-28.5609
 L 57.3408,-28.5733 L 57.3392,-28.5858 L 57.3374,-28.6014 L 57.3219,-28.7396 L 57.3187,-28.7673 L 57.3161,-28.7951
 L 57.3021,-28.9348 L 57.3003,-28.9509 L 57.2988,-28.9633 L 57.2972,-28.9758 L 57.2963,-28.9923 L 57.2945,-29.0201
 L 57.2868,-29.1613 L 57.2854,-29.1891 L 57.2792,-29.3304 L 57.2792,-29.3362 L 57.2787,-29.3474 L 57.2787,-29.3613
 L 57.2783,-29.3891 z
" stroke="black" fill="lightgray" stroke-width="0.5"/>
</svg>
